<?xml version="1.0" encoding="UTF-8"?>
<svg version="1.1" xmlns="http://www.w3.org/2000/svg" width="1280" height="1079">
<path d="M0 0 C422.4 0 844.8 0 1280 0 C1280 356.07 1280 712.14 1280 1079 C857.6 1079 435.2 1079 0 1079 C0 722.93 0 366.86 0 0 Z " fill="#A8BDCE" transform="translate(0,0)"/>
<path d="M0 0 C2.76855203 -0.0021716 5.53669456 -0.02035118 8.30517578 -0.03930664 C55.02919918 -0.18608015 101.91400669 10.36278105 143.80126953 31.18530273 C145.15841064 31.85166748 145.15841064 31.85166748 146.54296875 32.53149414 C166.66180386 42.47661952 185.14874215 54.34926587 202.80126953 68.18530273 C203.78353516 68.95358398 204.76580078 69.72186523 205.77783203 70.51342773 C222.81622226 84.16378071 239.54656034 99.82186583 252.80126953 117.18530273 C253.82518432 118.49324051 254.84999574 119.80047664 255.87548828 121.10717773 C308.03754652 187.96708625 332.36594932 271.73575034 322.5663147 356.21066284 C321.92805177 361.24241913 321.14053981 366.2460731 320.30126953 371.24780273 C320.10869568 372.40442413 320.10869568 372.40442413 319.91223145 373.58441162 C312.38221656 418.12692471 295.10891668 462.31786703 268.80126953 499.18530273 C268.30933105 499.8780127 267.81739258 500.57072266 267.31054688 501.28442383 C256.94214075 515.82223331 245.65820275 529.13751695 233.48876953 542.18530273 C232.52028076 543.22678467 232.52028076 543.22678467 231.53222656 544.28930664 C227.18986288 548.89187854 222.61115224 553.07892934 217.80126953 557.18530273 C216.72911891 558.13374976 215.65869778 559.08415682 214.59033203 560.03686523 C179.03792724 591.3665492 134.77776726 615.5063853 88.80126953 627.18530273 C88.06183105 627.37688965 87.32239258 627.56847656 86.56054688 627.76586914 C60.40421773 634.49507914 33.84070618 638.766796 6.80126953 638.18530273 C6.80126953 637.52530273 6.80126953 636.86530273 6.80126953 636.18530273 C8.16455078 634.88061523 8.16455078 634.88061523 10.11376953 633.31030273 C15.86356641 628.41082793 20.81288484 622.83523567 25.80126953 617.18530273 C26.46449219 616.43917725 26.46449219 616.43917725 27.14111328 615.67797852 C43.38147171 597.31119334 56.42122707 577.0980542 68.23876953 555.68530273 C68.73521973 554.789646 69.23166992 553.89398926 69.74316406 552.97119141 C72.88393637 547.19236351 75.49927953 541.34600038 77.80126953 535.18530273 C77.49535889 535.65726074 77.18944824 536.12921875 76.87426758 536.61547852 C67.62326974 550.83214881 57.90852253 564.12638221 46.29736328 576.50170898 C44.17067131 578.78815247 42.13054392 581.11517358 40.11376953 583.49780273 C37.28330812 586.75752844 34.2318201 589.57153711 30.93798828 592.35717773 C28.66471332 594.30213693 26.49051304 596.33390929 24.30126953 598.37280273 C-16.70822463 635.25004252 -71.05306921 657.39731767 -125.58520508 662.91918945 C-127.2515934 663.08886374 -128.91675375 663.27143902 -130.57983398 663.47094727 C-138.1270905 664.34055798 -145.67040296 664.42867613 -153.26123047 664.43530273 C-153.96192657 664.43597748 -154.66262268 664.43665222 -155.384552 664.43734741 C-209.29340219 664.35563378 -266.2089857 647.31324156 -309.19873047 614.18530273 C-305.78342405 612.21044433 -302.5605813 611.57890429 -298.68701172 610.92358398 C-297.37090255 610.69382481 -296.05490777 610.46340964 -294.73901367 610.23242188 C-294.04973785 610.11319366 -293.36046204 609.99396545 -292.65029907 609.87112427 C-270.92162894 606.07892217 -250.10470894 600.07841958 -229.25976562 592.89379883 C-226.57894446 591.9722467 -223.88976798 591.07651871 -221.19873047 590.18530273 C-221.73949219 590.26570801 -222.28025391 590.34611328 -222.83740234 590.42895508 C-254.04229509 595.01290936 -284.78519475 596.85433021 -316.19873047 593.18530273 C-317.03001465 593.08878418 -317.86129883 592.99226562 -318.71777344 592.89282227 C-366.34625816 587.10209613 -414.19467632 569.26375774 -453.19873047 541.18530273 C-453.81216309 540.7515332 -454.4255957 540.31776367 -455.05761719 539.87084961 C-463.58733446 533.83556989 -471.72711141 527.45486256 -479.59838867 520.58081055 C-480.73491856 519.58974955 -481.87731409 518.60539742 -483.02368164 517.62573242 C-495.43277872 506.94573389 -507.246191 495.19868122 -517.19873047 482.18530273 C-518.04619207 481.13616076 -518.8966378 480.08942465 -519.74951172 479.04467773 C-537.38089094 457.31055761 -554.91432258 431.13097992 -563.19873047 404.18530273 C-557.6245217 405.96225605 -552.17944508 407.94937225 -546.75561523 410.14111328 C-506.81491385 426.24743829 -466.0910591 436.16017894 -423.19873047 440.18530273 C-422.39033218 440.26863358 -421.5819339 440.35196442 -420.7490387 440.43782043 C-414.32960518 441.07282798 -407.98742145 441.34464202 -401.53857422 441.35327148 C-400.55904785 441.35755157 -399.57952148 441.36183167 -398.5703125 441.36624146 C-395.42557109 441.376166 -392.28098446 441.37630559 -389.13623047 441.37280273 C-388.05882599 441.37186615 -386.98142151 441.37092957 -385.87136841 441.3699646 C-353.13293213 441.30816352 -321.0138239 438.24495266 -289.19873047 430.18530273 C-288.25852051 429.95117676 -287.31831055 429.71705078 -286.34960938 429.47583008 C-234.43053476 416.43268564 -184.21942013 394.35071875 -141.00683594 362.5168457 C-139.76637492 361.60333309 -138.5230522 360.69369743 -137.27734375 359.78735352 C-127.13387972 352.40415182 -117.55141964 344.54357976 -108.19873047 336.18530273 C-107.45792236 335.53207031 -106.71711426 334.87883789 -105.95385742 334.20581055 C-99.66189749 328.61770124 -93.63273102 322.805547 -87.68481445 316.85668945 C-86.1394998 315.31356743 -84.58632601 313.77865968 -83.03271484 312.24389648 C-76.63606246 305.88332309 -70.80114968 299.26821834 -65.19873047 292.18530273 C-64.09013875 290.83355917 -62.97847002 289.48432928 -61.86279297 288.13842773 C-40.06820074 261.6435222 -22.37923314 232.93385791 -7.19873047 202.18530273 C-6.6213916 201.02933594 -6.04405273 199.87336914 -5.44921875 198.68237305 C2.33612733 182.8505007 7.01162085 169.86811327 4.80126953 152.18530273 C4.7186084 151.40541992 4.63594727 150.62553711 4.55078125 149.82202148 C1.0861852 118.47376902 -13.25492139 86.68598618 -34.19873047 63.18530273 C-34.92705078 62.34870117 -35.65537109 61.51209961 -36.40576172 60.65014648 C-38.63370152 58.12566829 -40.90378571 55.64893574 -43.19873047 53.18530273 C-43.92189453 52.39639648 -44.64505859 51.60749023 -45.39013672 50.79467773 C-57.52242491 38.06706575 -71.96377897 28.69970322 -87.27880859 20.25463867 C-89.6184265 18.95154528 -91.91463824 17.58316718 -94.19873047 16.18530273 C-89.77093244 13.23343738 -84.92188202 12.22555172 -79.82373047 10.81030273 C-78.70699951 10.49939697 -77.59026855 10.18849121 -76.43969727 9.86816406 C-66.11806159 7.0575675 -55.75171824 4.910376 -45.19873047 3.18530273 C-44.52245605 3.07347656 -43.84618164 2.96165039 -43.14941406 2.84643555 C-28.78622815 0.51568053 -14.52056196 -0.00126773 0 0 Z " fill="#095385" transform="translate(714.19873046875,174.814697265625)"/>
<path d="M0 0 C2.76855203 -0.0021716 5.53669456 -0.02035118 8.30517578 -0.03930664 C55.02919918 -0.18608015 101.91400669 10.36278105 143.80126953 31.18530273 C144.70603027 31.6295459 145.61079102 32.07378906 146.54296875 32.53149414 C166.66180386 42.47661952 185.14874215 54.34926587 202.80126953 68.18530273 C203.78353516 68.95358398 204.76580078 69.72186523 205.77783203 70.51342773 C222.81622226 84.16378071 239.54656034 99.82186583 252.80126953 117.18530273 C253.82518432 118.49324051 254.84999574 119.80047664 255.87548828 121.10717773 C308.03754652 187.96708625 332.36594932 271.73575034 322.5663147 356.21066284 C321.92805177 361.24241913 321.14053981 366.2460731 320.30126953 371.24780273 C320.10869568 372.40442413 320.10869568 372.40442413 319.91223145 373.58441162 C312.38221656 418.12692471 295.10891668 462.31786703 268.80126953 499.18530273 C268.30933105 499.8780127 267.81739258 500.57072266 267.31054688 501.28442383 C256.94214075 515.82223331 245.65820275 529.13751695 233.48876953 542.18530273 C232.84311035 542.87962402 232.19745117 543.57394531 231.53222656 544.28930664 C227.18986288 548.89187854 222.61115224 553.07892934 217.80126953 557.18530273 C216.72911891 558.13374976 215.65869778 559.08415682 214.59033203 560.03686523 C179.03792724 591.3665492 134.77776726 615.5063853 88.80126953 627.18530273 C88.06183105 627.37688965 87.32239258 627.56847656 86.56054688 627.76586914 C60.40421773 634.49507914 33.84070618 638.766796 6.80126953 638.18530273 C6.80126953 637.52530273 6.80126953 636.86530273 6.80126953 636.18530273 C8.16455078 634.88061523 8.16455078 634.88061523 10.11376953 633.31030273 C15.86356641 628.41082793 20.81288484 622.83523567 25.80126953 617.18530273 C26.46449219 616.43917725 26.46449219 616.43917725 27.14111328 615.67797852 C40.36667555 600.72073098 51.87032924 584.49341147 61.80126953 567.18530273 C62.27242187 566.36787598 62.74357422 565.55044922 63.22900391 564.70825195 C70.80390075 551.46229582 77.37321477 537.83614348 83.69580078 523.95483398 C86.00534775 518.88521825 88.40272849 513.86933491 90.8605957 508.87036133 C102.32326996 485.45372343 109.62013646 460.87386337 113.80126953 435.18530273 C113.98077148 434.1754834 114.16027344 433.16566406 114.34521484 432.12524414 C116.35329175 419.45711672 116.19883516 406.73132154 116.17626953 393.93530273 C116.17495529 392.1255043 116.17495529 392.1255043 116.1736145 390.27914429 C116.13198986 372.94327319 115.7927601 356.13543062 111.80126953 339.18530273 C111.52798828 338.01499512 111.25470703 336.8446875 110.97314453 335.63891602 C108.50824679 325.3131026 105.92155793 315.0253391 102.35498047 305.01806641 C101.65311574 302.6949189 101.56818318 300.59386171 101.80126953 298.18530273 C101.14126953 298.18530273 100.48126953 298.18530273 99.80126953 298.18530273 C99.09164062 296.45860352 99.09164062 296.45860352 98.36767578 294.69702148 C94.75712025 285.97959423 91.02612458 277.33956059 86.98876953 268.81030273 C86.61631104 268.02099365 86.24385254 267.23168457 85.86010742 266.41845703 C79.37960577 252.85738011 70.23863143 240.68257402 60.93017578 228.93920898 C59.80126953 227.18530273 59.80126953 227.18530273 59.32861328 225.02514648 C59.15458984 224.41799805 58.98056641 223.81084961 58.80126953 223.18530273 C57.81126953 222.85530273 56.82126953 222.52530273 55.80126953 222.18530273 C54.30221563 220.50921771 52.87327627 218.76968442 51.48876953 216.99780273 C48.86691101 213.69905917 46.28380012 210.53733202 43.23876953 207.62280273 C42.43439453 206.81842773 41.63001953 206.01405273 40.80126953 205.18530273 C40.80126953 204.52530273 40.80126953 203.86530273 40.80126953 203.18530273 C40.22119141 202.93393555 39.64111328 202.68256836 39.04345703 202.42358398 C36.52160931 201.03085623 34.90982874 199.45593821 32.92626953 197.37280273 C29.70169564 194.0579889 26.39275137 191.0926928 22.80126953 188.18530273 C22.14126953 187.52530273 21.48126953 186.86530273 20.80126953 186.18530273 C19.52139686 185.19076964 18.22824018 184.21322625 16.92626953 183.24780273 C16.24822266 182.7437793 15.57017578 182.23975586 14.87158203 181.72045898 C13.46921956 180.68059398 12.04624132 179.66806811 10.60595703 178.68139648 C8.80126953 177.18530273 8.80126953 177.18530273 7.80126953 174.18530273 C7.73097832 171.61264455 7.70756121 169.06888842 7.73876953 166.49780273 C7.74328125 165.7959082 7.74779297 165.09401367 7.75244141 164.37084961 C7.76420027 162.64229735 7.782135 160.91378908 7.80126953 159.18530273 C7.14126953 159.18530273 6.48126953 159.18530273 5.80126953 159.18530273 C5.66664307 158.2064209 5.66664307 158.2064209 5.52929688 157.20776367 C0.66120887 122.59159617 -10.55937263 89.71061449 -34.19873047 63.18530273 C-34.92705078 62.34870117 -35.65537109 61.51209961 -36.40576172 60.65014648 C-38.63370152 58.12566829 -40.90378571 55.64893574 -43.19873047 53.18530273 C-43.92189453 52.39639648 -44.64505859 51.60749023 -45.39013672 50.79467773 C-57.52242491 38.06706575 -71.96377897 28.69970322 -87.27880859 20.25463867 C-89.6184265 18.95154528 -91.91463824 17.58316718 -94.19873047 16.18530273 C-89.77093244 13.23343738 -84.92188202 12.22555172 -79.82373047 10.81030273 C-78.70699951 10.49939697 -77.59026855 10.18849121 -76.43969727 9.86816406 C-66.11806159 7.0575675 -55.75171824 4.910376 -45.19873047 3.18530273 C-44.52245605 3.07347656 -43.84618164 2.96165039 -43.14941406 2.84643555 C-28.78622815 0.51568053 -14.52056196 -0.00126773 0 0 Z " fill="#18496B" transform="translate(714.19873046875,174.814697265625)"/>
<path d="M0 0 C0.66 0 1.32 0 2 0 C2.06058594 1.04800781 2.12117188 2.09601563 2.18359375 3.17578125 C2.26801738 4.55470048 2.35266447 5.93360605 2.4375 7.3125 C2.47681641 8.00279297 2.51613281 8.69308594 2.55664062 9.40429688 C2.75703231 15.19745005 2.75703231 15.19745005 5.92578125 19.75390625 C6.71339844 20.35074219 7.50101563 20.94757813 8.3125 21.5625 C9.09238281 22.16191406 9.87226562 22.76132812 10.67578125 23.37890625 C12.90941886 25.02310155 12.90941886 25.02310155 15.18359375 26.078125 C17.85082032 27.43181418 19.13405496 29.6675687 21 32 C24.54180963 35.32139659 28.26453496 38.41462987 32.0625 41.4375 C38.49601424 47.04971455 43.63909752 53.95650375 48.984375 60.58203125 C50.87056948 62.91978051 50.87056948 62.91978051 52.60546875 64.6015625 C54.14398197 66.14438528 55.32722993 67.76961586 56.5625 69.5625 C57.96531348 71.59461298 59.2431353 73.2431353 61 75 C62.76334986 77.69714351 64.45169795 80.4363317 66.1484375 83.17578125 C67.95691019 86.05222726 67.95691019 86.05222726 70.2265625 88.66796875 C72 91 72 91 72 94 C72.99 94.33 73.98 94.66 75 95 C76.30321973 97.68309944 77.12270965 100.39880638 78 103.25 C78.69115171 106.13213612 78.69115171 106.13213612 81 107 C84.29176716 113.09820968 87.01573505 119.44887685 89.75 125.8125 C90.16121094 126.75287109 90.57242187 127.69324219 90.99609375 128.66210938 C91.38410156 129.56380859 91.77210938 130.46550781 92.171875 131.39453125 C92.5234668 132.20768799 92.87505859 133.02084473 93.23730469 133.85864258 C94 136 94 136 94 139 C94.66 139 95.32 139 96 139 C104.78137183 169.58444848 111.56626874 198.30958733 111.44604492 230.30273438 C111.43754044 233.73368606 111.46643461 237.16296114 111.49804688 240.59375 C111.63300434 283.60717071 98.93506333 323.03023122 80.6875 361.5 C80.1716333 362.59344727 79.6557666 363.68689453 79.12426758 364.81347656 C78.63337646 365.8340918 78.14248535 366.85470703 77.63671875 367.90625 C76.98255981 369.27233398 76.98255981 369.27233398 76.31518555 370.66601562 C75.05898459 372.89532343 73.83855055 374.25762996 72 376 C71.12404597 377.22366999 70.28199314 378.4720667 69.46875 379.73828125 C68.9936499 380.46901855 68.5185498 381.19975586 68.02905273 381.95263672 C67.27217163 383.12076904 67.27217163 383.12076904 66.5 384.3125 C58.71020023 396.14351757 50.18477613 406.99008069 40.49609375 417.31640625 C38.36940178 419.60284973 36.32927439 421.92987084 34.3125 424.3125 C31.48203859 427.5722257 28.43055057 430.38623437 25.13671875 433.171875 C22.86344379 435.1168342 20.68924351 437.14860655 18.5 439.1875 C-22.50949416 476.06473979 -76.85433874 498.21201494 -131.38647461 503.73388672 C-133.05286293 503.90356101 -134.71802328 504.08613629 -136.38110352 504.28564453 C-143.92836003 505.15525525 -151.47167249 505.2433734 -159.0625 505.25 C-159.76319611 505.25067474 -160.46389221 505.25134949 -161.18582153 505.25204468 C-215.09467173 505.17033105 -272.01025523 488.12793883 -315 455 C-311.58469358 453.02514159 -308.36185083 452.39360156 -304.48828125 451.73828125 C-303.17217208 451.50852208 -301.8561773 451.2781069 -300.5402832 451.04711914 C-299.85100739 450.92789093 -299.16173157 450.80866272 -298.4515686 450.68582153 C-278.41747219 447.18936538 -259.12186438 441.95515223 -239.89575195 435.30883789 C-234.97000949 433.60845696 -230.07423958 432.19154538 -225 431 C-225 430.34 -225 429.68 -225 429 C-224.34 429.061875 -223.68 429.12375 -223 429.1875 C-219.7327918 428.98329949 -217.22401255 427.96314813 -214.19482422 426.79125977 C-211.43798616 425.79738745 -208.6591621 425.10256137 -205.81274414 424.41699219 C-144.25453547 409.59012626 -84.16573784 370.81237286 -46 320 C-45.59217285 319.45939941 -45.1843457 318.91879883 -44.76416016 318.36181641 C-41.44771466 313.95158516 -38.20219576 309.49378984 -35 305 C-34.57960449 304.4112207 -34.15920898 303.82244141 -33.72607422 303.21582031 C-25.81796892 292.03333875 -19.32406508 280.13238924 -13 268 C-12.30173096 266.68660645 -12.30173096 266.68660645 -11.58935547 265.34667969 C9.9251549 224.57993074 20.25508056 177.3149453 20.13037109 131.4074707 C20.12501513 129.06910702 20.13034921 126.730936 20.13671875 124.39257812 C20.14249035 112.87171474 19.86352367 101.39720273 18 90 C17.7577912 88.33854477 17.51560618 86.67708608 17.2734375 85.015625 C13.97568292 63.45961661 8.84303176 42.36889932 1 22 C0.34 22 -0.32 22 -1 22 C-1.30550781 22.67160156 -1.61101562 23.34320313 -1.92578125 24.03515625 C-5.43910668 31.70509206 -9.04782176 39.32682637 -12.6875 46.9375 C-13.16292236 47.93209229 -13.63834473 48.92668457 -14.12817383 49.95141602 C-16.38075201 54.65412511 -18.64602016 59.34715023 -21 64 C-21.66 64 -22.32 64 -23 64 C-21.57298256 60.30435826 -19.95334329 56.75839448 -18.20703125 53.203125 C-14.76322915 46.15463353 -11.36450443 39.0866901 -8 32 C-7.57831543 31.11441406 -7.15663086 30.22882813 -6.72216797 29.31640625 C-2.07239945 19.4023987 0.11237163 11.02847274 0 0 Z " fill="#1A6CA3" transform="translate(720,334)"/>
<path d="M0 0 C10.99086039 -0.17263132 21.46001753 0.63650242 32.28515625 2.53125 C34.41209173 2.89849066 36.54866537 3.20998852 38.6875 3.5 C45.17869182 4.47980254 51.71837813 5.88285213 57.9375 8 C60.84529857 9.02194381 60.84529857 9.02194381 63.3125 9.4375 C70.07262364 10.8524096 76.56253048 13.54205709 83 16 C83 16.66 83 17.32 83 18 C83.99 17.67 84.98 17.34 86 17 C87.69287785 17.95495674 89.35857037 18.9590934 91 20 C93.19130534 20.69579454 93.19130534 20.69579454 95 21 C95 21.66 95 22.32 95 23 C96.32 23 97.64 23 99 23 C99 23.66 99 24.32 99 25 C101.64 25.66 104.28 26.32 107 27 C107 27.66 107 28.32 107 29 C107.66 29.2475 108.32 29.495 109 29.75 C112.76360907 31.31817045 116.3711424 33.14505046 120 35 C120 35.66 120 36.32 120 37 C121.65 37.33 123.3 37.66 125 38 C125 38.66 125 39.32 125 40 C125.99 40 126.98 40 128 40 C128 40.66 128 41.32 128 42 C128.99 42 129.98 42 131 42 C131.33 42.66 131.66 43.32 132 44 C133.65051288 45.11634152 133.65051288 45.11634152 135.5625 46.125 C136.696875 46.74375 137.83125 47.3625 139 48 C139 48.66 139 49.32 139 50 C139.66 50 140.32 50 141 50 C141 50.66 141 51.32 141 52 C142.65 52.66 144.3 53.32 146 54 C146 54.66 146 55.32 146 56 C146.85271484 56.37705078 146.85271484 56.37705078 147.72265625 56.76171875 C152.4243397 59.31820872 156.13517442 63.34052101 160 67 C160.77754639 67.73452393 160.77754639 67.73452393 161.57080078 68.48388672 C169.55628866 76.08922784 176.58434583 84.02258286 183 93 C183.66878174 93.92619141 183.66878174 93.92619141 184.35107422 94.87109375 C220.55595417 145.25632395 234.34392772 207.69153577 226 269 C221.94732924 292.36917329 221.94732924 292.36917329 216.95532227 302.01953125 C215.78937902 304.22369949 215.78937902 304.22369949 215.25 307.8125 C213.10050561 318.05221738 208.44058523 328.11692058 203 337 C202.34 337 201.68 337 201 337 C201 338.32 201 339.64 201 341 C200.34 341 199.68 341 199 341 C198.34 343.31 197.68 345.62 197 348 C196.34 348 195.68 348 195 348 C194.6596875 349.546875 194.6596875 349.546875 194.3125 351.125 C193.14827898 355.25798461 190.8150705 357.77296797 188 361 C187.46375 362.0725 186.9275 363.145 186.375 364.25 C185 367 185 367 182 369 C181.56300781 370.11181641 181.56300781 370.11181641 181.1171875 371.24609375 C179.70507443 374.72700184 177.56610558 377.2655625 175.125 380.0625 C174.35192505 380.95183228 174.35192505 380.95183228 173.56323242 381.85913086 C160.67708472 396.42937944 146.97035161 409.85671257 131 421 C130.35192383 421.45552246 129.70384766 421.91104492 129.03613281 422.38037109 C115.42306823 431.88065468 101.36940491 439.72433535 86 446 C85.26168945 446.30325195 84.52337891 446.60650391 83.76269531 446.91894531 C67.84206985 453.41369 51.83676993 457.62546616 35 461 C35 461.33 35 461.66 35 462 C22.60101826 463.53956314 10.49293564 464.26866528 -2 464 C-2 463.34 -2 462.68 -2 462 C-0.63671875 460.6953125 -0.63671875 460.6953125 1.3125 459.125 C7.06229688 454.22552519 12.01161531 448.64993294 17 443 C17.44214844 442.50258301 17.88429688 442.00516602 18.33984375 441.49267578 C31.56540602 426.53542825 43.06905971 410.30810874 53 393 C53.47115234 392.18257324 53.94230469 391.36514648 54.42773438 390.52294922 C62.00263122 377.27699309 68.57194524 363.65084074 74.89453125 349.76953125 C77.20407822 344.69991552 79.60145896 339.68403218 82.05932617 334.68505859 C93.52200043 311.2684207 100.81886693 286.68856064 105 261 C105.17950195 259.99018066 105.35900391 258.98036133 105.54394531 257.93994141 C107.55202222 245.27181399 107.39756563 232.5460188 107.375 219.75 C107.37368576 217.94020157 107.37368576 217.94020157 107.37234497 216.09384155 C107.33072033 198.75797046 106.99149057 181.95012788 103 165 C102.59007812 163.24453857 102.59007812 163.24453857 102.171875 161.45361328 C99.70697726 151.12779987 97.1202884 140.84003636 93.55371094 130.83276367 C92.85184621 128.50961617 92.76691365 126.40855898 93 124 C92.34 124 91.68 124 91 124 C90.52691406 122.84886719 90.05382812 121.69773437 89.56640625 120.51171875 C85.95585072 111.7942915 82.22485505 103.15425785 78.1875 94.625 C77.8150415 93.83569092 77.44258301 93.04638184 77.05883789 92.2331543 C70.57833624 78.67207738 61.4373619 66.49727128 52.12890625 54.75390625 C51 53 51 53 50.52734375 50.83984375 C50.35332031 50.23269531 50.17929687 49.62554687 50 49 C49.01 48.67 48.02 48.34 47 48 C45.5009461 46.32391497 44.07200674 44.58438168 42.6875 42.8125 C40.06564148 39.51375644 37.48253059 36.35202928 34.4375 33.4375 C33.633125 32.633125 32.82875 31.82875 32 31 C32 30.34 32 29.68 32 29 C31.41992188 28.74863281 30.83984375 28.49726563 30.2421875 28.23828125 C27.72033978 26.8455535 26.10855921 25.27063548 24.125 23.1875 C20.90042611 19.87268617 17.59148184 16.90739006 14 14 C13.34 13.34 12.68 12.68 12 12 C10.72012733 11.0054669 9.42697065 10.02792352 8.125 9.0625 C7.44695313 8.55847656 6.76890625 8.05445313 6.0703125 7.53515625 C4.65428742 6.48516029 3.20935267 5.47335775 1.7421875 4.49609375 C1.16726563 4.00238281 0.59234375 3.50867188 0 3 C0 2.01 0 1.02 0 0 Z " fill="#0B5588" transform="translate(723,349)"/>
<path d="M0 0 C4.99228325 0.41315448 8.13326339 2.08541858 12.40234375 4.578125 C13.18367676 5.02486572 13.96500977 5.47160645 14.77001953 5.93188477 C27.74397955 13.52994517 39.1671427 22.91771595 49.96484375 33.328125 C50.79113281 34.09125 51.61742187 34.854375 52.46875 35.640625 C79.20724012 61.04862846 97.24997327 98.66723148 100.96484375 135.328125 C101.10188721 136.59197021 101.10188721 136.59197021 101.24169922 137.88134766 C102.67037396 153.0175021 99.19766995 163.99125138 92.41455078 177.42822266 C90.97316746 180.31147477 89.6136226 183.22084242 88.2734375 186.15234375 C78.05548132 208.37658531 65.36908881 228.66184508 51.65380859 248.84228516 C50.41540423 250.66498438 49.18718423 252.49461428 47.96484375 254.328125 C42.99481499 253.78773902 39.12402774 252.1082882 34.77734375 249.765625 C30.1444461 247.15402712 30.1444461 247.15402712 24.96484375 246.328125 C24.63484375 245.668125 24.30484375 245.008125 23.96484375 244.328125 C21.98358525 243.60766736 19.97980282 242.94811241 17.96484375 242.328125 C16.60359375 241.77125 16.60359375 241.77125 15.21484375 241.203125 C13.05653402 240.20730958 13.05653402 240.20730958 10.96484375 240.328125 C10.96484375 239.668125 10.96484375 239.008125 10.96484375 238.328125 C9.31484375 238.328125 7.66484375 238.328125 5.96484375 238.328125 C5.96484375 237.668125 5.96484375 237.008125 5.96484375 236.328125 C4.97484375 236.658125 3.98484375 236.988125 2.96484375 237.328125 C0.65234375 236.69140625 0.65234375 236.69140625 -2.03515625 235.640625 C-3.02515625 235.26550781 -4.01515625 234.89039063 -5.03515625 234.50390625 C-6.87302284 233.78359656 -8.70732667 233.0540055 -10.53515625 232.30859375 C-19.42873291 228.82064415 -28.68948924 227.14456452 -38.03515625 225.328125 C-39.9519283 224.95366404 -41.86862196 224.57880094 -43.78515625 224.203125 C-44.460625 224.07679688 -45.13609375 223.95046875 -45.83203125 223.8203125 C-48.03515625 223.328125 -48.03515625 223.328125 -51.11962891 222.37573242 C-55.32949171 221.16885248 -59.54641727 220.60064009 -63.88671875 220.07421875 C-64.73129639 219.96862137 -65.57587402 219.86302399 -66.44604492 219.75422668 C-69.18315655 219.41648375 -71.92140612 219.0897975 -74.66015625 218.765625 C-75.59301453 218.65351685 -76.5258728 218.54140869 -77.48699951 218.42590332 C-91.80900812 216.72029542 -105.9605708 215.68534902 -120.38671875 215.46875 C-125.01415748 215.39819575 -129.45986796 215.01497215 -134.03515625 214.328125 C-134.03515625 214.988125 -134.03515625 215.648125 -134.03515625 216.328125 C-141.75505663 217.20207599 -146.73032441 214.69365437 -153.03515625 210.328125 C-157.26407749 206.86372429 -161.16292952 203.18405905 -165.03515625 199.328125 C-165.77894531 198.61914062 -166.52273438 197.91015625 -167.2890625 197.1796875 C-175.88521588 188.39848972 -185.03515625 171.78160602 -185.03515625 159.328125 C-184.37515625 159.328125 -183.71515625 159.328125 -183.03515625 159.328125 C-182.83019531 158.70164062 -182.62523437 158.07515625 -182.4140625 157.4296875 C-182.14464844 156.61242187 -181.87523437 155.79515625 -181.59765625 154.953125 C-181.33082031 154.14101563 -181.06398438 153.32890625 -180.7890625 152.4921875 C-180.03515625 150.328125 -180.03515625 150.328125 -179.03515625 148.328125 C-178.37515625 148.328125 -177.71515625 148.328125 -177.03515625 148.328125 C-176.76703125 147.461875 -176.49890625 146.595625 -176.22265625 145.703125 C-175.06403638 142.41020536 -173.65305786 139.41684625 -172.03515625 136.328125 C-171.37515625 136.328125 -170.71515625 136.328125 -170.03515625 136.328125 C-169.81859375 135.66941406 -169.60203125 135.01070312 -169.37890625 134.33203125 C-167.56950347 130.28717446 -165.09256992 126.87045487 -162.53515625 123.265625 C-161.54321477 121.85973378 -160.55355183 120.45223155 -159.56640625 119.04296875 C-159.12876953 118.42542725 -158.69113281 117.80788574 -158.24023438 117.17163086 C-156.98307368 115.33335108 -156.98307368 115.33335108 -156.01757812 113.23266602 C-155.03515625 111.328125 -155.03515625 111.328125 -152.78515625 109.140625 C-150.50345273 106.80706459 -149.00589306 104.85556531 -147.28515625 102.140625 C-144.34330098 97.58793382 -140.92092402 93.69660061 -137.24609375 89.72265625 C-135.35136113 87.67058718 -133.52964774 85.58184912 -131.72265625 83.453125 C-124.48542591 75.15555626 -116.51425574 67.34770736 -108.03515625 60.328125 C-107.17615723 59.61438721 -107.17615723 59.61438721 -106.29980469 58.88623047 C-98.42616574 52.36017247 -90.51811875 46.05156958 -82.03515625 40.328125 C-80.47255562 39.20326478 -78.91005924 38.07825972 -77.34765625 36.953125 C-53.51723864 20.328125 -53.51723864 20.328125 -45.03515625 20.328125 C-45.03515625 19.668125 -45.03515625 19.008125 -45.03515625 18.328125 C-37.38298234 14.328125 -37.38298234 14.328125 -33.03515625 14.328125 C-32.70515625 13.668125 -32.37515625 13.008125 -32.03515625 12.328125 C-30.03515625 11.99479167 -28.03515625 11.66145833 -26.03515625 11.328125 C-25.70515625 10.668125 -25.37515625 10.008125 -25.03515625 9.328125 C-23.71515625 9.328125 -22.39515625 9.328125 -21.03515625 9.328125 C-20.70515625 8.668125 -20.37515625 8.008125 -20.03515625 7.328125 C-19.37515625 6.998125 -18.71515625 6.668125 -18.03515625 6.328125 C-17.04515625 6.823125 -17.04515625 6.823125 -16.03515625 7.328125 C-15.70515625 6.668125 -15.37515625 6.008125 -15.03515625 5.328125 C-14.37515625 4.998125 -13.71515625 4.668125 -13.03515625 4.328125 C-12.04515625 4.823125 -12.04515625 4.823125 -11.03515625 5.328125 C-10.70515625 4.668125 -10.37515625 4.008125 -10.03515625 3.328125 C-9.04515625 2.998125 -8.05515625 2.668125 -7.03515625 2.328125 C-6.04515625 2.823125 -6.04515625 2.823125 -5.03515625 3.328125 C-4.70515625 2.668125 -4.37515625 2.008125 -4.03515625 1.328125 C-3.03515625 0.328125 -3.03515625 0.328125 0 0 Z " fill="#C5D4E0" transform="translate(619.03515625,191.671875)"/>
<path d="M0 0 C0.33 0 0.66 0 1 0 C1.32267174 9.25857732 0.32262215 18.27285037 -0.8125 27.4375 C-0.99751362 28.96157425 -1.18240848 30.48566292 -1.3671875 32.00976562 C-3.46900293 49.2096334 -5.92282444 66.14569031 -10 83 C-10.22059082 83.91797363 -10.44118164 84.83594727 -10.66845703 85.78173828 C-12.38115007 92.87146351 -14.16933685 99.93988435 -16 107 C-16.21849609 107.85368164 -16.43699219 108.70736328 -16.66210938 109.58691406 C-27.84338664 152.78104822 -46.47266469 195.54293047 -69 234 C-69.45552246 234.78600586 -69.91104492 235.57201172 -70.38037109 236.38183594 C-77.70199632 248.98483641 -85.59569038 261.09493659 -94 273 C-94.5377002 273.76586426 -95.07540039 274.53172852 -95.62939453 275.32080078 C-102.88926277 285.63561808 -110.51256191 295.56054376 -118.56884766 305.26464844 C-119.83638163 306.80160365 -121.08199207 308.35658166 -122.32421875 309.9140625 C-127.77217298 316.74162806 -133.6608983 323.08680588 -139.65234375 329.43359375 C-142.34227496 332.2856866 -144.96749166 335.18590216 -147.5625 338.125 C-154.85079957 346.26994672 -162.58528831 354.12753462 -170.921875 361.203125 C-173.08077785 363.06984551 -175.17535822 364.99875642 -177.26660156 366.94067383 C-183.31543786 372.55294693 -189.55559936 377.84277462 -196 383 C-197.13083957 383.92240375 -198.26101515 384.84562196 -199.390625 385.76953125 C-218.06133362 400.97372426 -237.92414231 415.31062388 -259 427 C-257.57578243 423.996064 -255.92635834 421.29138768 -254.05859375 418.54296875 C-253.47980469 417.68630615 -252.90101563 416.82964355 -252.3046875 415.94702148 C-251.38042969 414.58105835 -251.38042969 414.58105835 -250.4375 413.1875 C-233.52164797 387.90164664 -220.22042471 361.66740516 -210 333 C-209.70158203 332.18418457 -209.40316406 331.36836914 -209.09570312 330.52783203 C-205.83549212 321.59677165 -203.23220718 312.53771572 -200.9375 303.3125 C-200.67984863 302.28189453 -200.42219727 301.25128906 -200.15673828 300.18945312 C-198.71115194 294.06631609 -197.71257659 288.03704249 -197.07421875 281.7890625 C-194.71204437 259.62593443 -194.71204437 259.62593443 -189.8671875 255.64453125 C-186.56846773 253.74631754 -183.05524694 252.73545684 -179.39648438 251.74951172 C-174.9136699 250.34749048 -170.87394498 248.02974035 -166.75 245.8125 C-165.86747559 245.35069336 -164.98495117 244.88888672 -164.07568359 244.41308594 C-141.02886241 232.21895643 -119.83270388 216.2708654 -100.7734375 198.55078125 C-98.53557826 196.49258113 -96.26585207 194.5154647 -93.9375 192.5625 C-88.49422487 187.82628948 -83.77785262 182.38904752 -79 177 C-78.52014648 176.46487793 -78.04029297 175.92975586 -77.54589844 175.37841797 C-68.95564132 165.77399337 -61.31631194 155.60137527 -54 145 C-53.5270752 144.31599121 -53.05415039 143.63198242 -52.56689453 142.92724609 C-34.42458268 116.42543095 -21.5037891 87.54139267 -11.93261719 56.97363281 C-11.15472657 54.49334283 -10.35129306 52.02382205 -9.5390625 49.5546875 C-4.49905965 33.54104767 -2.5837141 16.54593919 0 0 Z " fill="#8FC61E" transform="translate(1036,529)"/>
<path d="M0 0 C2.6774725 2.6774725 3.09421156 5.18934958 4.1875 8.8125 C8.09927264 21.02870125 13.8257249 30.96152831 23 40 C23.78375 40.78246094 24.5675 41.56492187 25.375 42.37109375 C30.70637753 47.43761118 36.27013595 51.17468354 42.7265625 54.6875 C43.47679687 55.120625 44.22703125 55.55375 45 56 C45 56.33 45 56.66 45 57 C44.27748047 57.06469482 43.55496094 57.12938965 42.81054688 57.19604492 C25.91236964 58.75055981 9.52431537 61.14056478 -7 65 C-7.73428223 65.17096191 -8.46856445 65.34192383 -9.22509766 65.51806641 C-12.02346807 66.1716756 -14.81966853 66.82972678 -17.609375 67.51953125 C-20 68 -20 68 -24 68 C-19.59103766 44.24336348 -10.64697313 21.60542686 0 0 Z " fill="#115A8C" transform="translate(433,352)"/>
<path d="M0 0 C0.33 0 0.66 0 1 0 C1.3154622 8.66586347 0.45871585 17.11501395 -0.59912109 25.69702148 C-0.8740001 27.92937954 -1.13897356 30.16274224 -1.40234375 32.39648438 C-2.38710376 40.63828923 -3.53584951 48.82696614 -5 57 C-5.66 57 -6.32 57 -7 57 C-7.33 56.01 -7.66 55.02 -8 54 C-8.22139648 54.67466309 -8.44279297 55.34932617 -8.67089844 56.04443359 C-9.69397516 59.15571529 -10.72195811 62.26535555 -11.75 65.375 C-12.27207031 66.96634766 -12.27207031 66.96634766 -12.8046875 68.58984375 C-14.98180494 75.16151305 -17.33371937 81.61120036 -20 88 C-20.49628906 89.19753906 -20.99257813 90.39507813 -21.50390625 91.62890625 C-23.20408959 95.45986768 -25.04478911 99.19894534 -26.9375 102.9375 C-27.27201172 103.60201172 -27.60652344 104.26652344 -27.95117188 104.95117188 C-28.63044179 106.30055007 -29.31153236 107.64901321 -29.99438477 108.99658203 C-30.64325625 110.28928399 -31.2825213 111.58687414 -31.90991211 112.89013672 C-34.81727556 118.88882546 -38.22016144 124.56059516 -41.6875 130.25 C-42.30383301 131.26328369 -42.92016602 132.27656738 -43.55517578 133.32055664 C-47.99411988 140.54093779 -52.65253145 147.42176487 -58 154 C-58 150.40785777 -57.18197317 149.44277177 -55.17578125 146.51953125 C-54.56565186 145.61525391 -53.95552246 144.71097656 -53.3269043 143.77929688 C-52.66215088 142.80025391 -51.99739746 141.82121094 -51.3125 140.8125 C-33.91206015 114.60539971 -21.31927471 86.95210312 -11.93261719 56.97363281 C-11.15472657 54.49334283 -10.35129306 52.02382205 -9.5390625 49.5546875 C-4.49905965 33.54104767 -2.5837141 16.54593919 0 0 Z " fill="#EBE608" transform="translate(1036,529)"/>
<path d="M0 0 C0.33 0 0.66 0 1 0 C1.3154622 8.66586347 0.45871585 17.11501395 -0.59912109 25.69702148 C-0.8740001 27.92937954 -1.13897356 30.16274224 -1.40234375 32.39648438 C-2.38710376 40.63828923 -3.53584951 48.82696614 -5 57 C-5.66 57 -6.32 57 -7 57 C-7 55.02 -7 53.04 -7 51 C-7.33 51 -7.66 51 -8 51 C-8.33938165 44.50588629 -7.04258772 38.58193781 -5.6875 32.25 C-3.46328108 21.53919054 -1.5865659 10.82218528 0 0 Z " fill="#EFE60D" transform="translate(1036,529)"/>
<path d="M0 0 C-1.98 0.99 -3.96 1.98 -6 3 C-6 3.99 -6 4.98 -6 6 C-15.06311285 8.99870093 -24.2594832 10.96478043 -33.625 12.75 C-34.75591064 12.97260498 -35.88682129 13.19520996 -37.05200195 13.42456055 C-44.44740894 14.79344388 -51.48443853 15.27589417 -59 15 C-59 14.67 -59 14.34 -59 14 C-58.1028125 13.90203125 -57.205625 13.8040625 -56.28125 13.703125 C-38.53226173 11.57618013 -21.30714033 6.88855572 -4.953125 -0.3984375 C-3 -1 -3 -1 0 0 Z " fill="#12334D" transform="translate(812,795)"/>
<path d="M0 0 C0.66 0 1.32 0 2 0 C1.66562424 9.68876636 -0.1393229 18.43326677 -2.9375 27.6875 C-3.13363892 28.35009827 -3.32977783 29.01269653 -3.53186035 29.69537354 C-8.53754435 46.57884066 -13.97250968 63.80356608 -23 79 C-23.33 78.34 -23.66 77.68 -24 77 C-23.09814095 75.1962819 -22.18814658 73.39633626 -21.24609375 71.61328125 C-19.19054531 67.30242889 -17.73183584 62.78348982 -16.1640625 58.27734375 C-15.28487512 55.80204773 -14.37113467 53.40064124 -13.3125 51 C-10.75215143 45.14777471 -9.30087543 39.22759516 -8 33 C-7.34 33 -6.68 33 -6 33 C-6 30.69 -6 28.38 -6 26 C-5.34 26 -4.68 26 -4 26 C-3.95101563 25.38253906 -3.90203125 24.76507812 -3.8515625 24.12890625 C-3.39936584 19.00660962 -2.66881485 14.11752946 -1.4765625 9.1171875 C-0.79643108 6.09562004 -0.39205146 3.07106975 0 0 Z " fill="#142F4A" transform="translate(1030,552)"/>
<path d="M0 0 C1.61323505 4.03308763 0.20687236 6.97709214 -1 11 C-1.2541959 12.93824374 -1.50702407 14.87697092 -1.71875 16.8203125 C-2.24795454 20.92164772 -3.15520218 24.95421044 -4 29 C-4.15597656 29.80308594 -4.31195312 30.60617187 -4.47265625 31.43359375 C-5.96674178 38.70481 -7.94352646 45.87089173 -10 53 C-10.68567789 55.66232175 -11.34422931 58.33007648 -12 61 C-13.68892279 58.45378904 -14.03606472 57.27468539 -13.63208008 54.19775391 C-13.20511841 52.60326416 -13.20511841 52.60326416 -12.76953125 50.9765625 C-12.46080078 49.78933594 -12.15207031 48.60210938 -11.83398438 47.37890625 C-11.49689453 46.14011719 -11.15980469 44.90132812 -10.8125 43.625 C-7.30524183 30.37851985 -4.11473817 17.28932464 -2.52734375 3.66796875 C-2.35332031 2.78753906 -2.17929688 1.90710938 -2 1 C-1.34 0.67 -0.68 0.34 0 0 Z " fill="#9DA9B4" transform="translate(1033,579)"/>
<path d="M0 0 C-2.65303657 2.65303657 -5.64933941 3.41363879 -9.1328125 4.56640625 C-9.8434787 4.80536118 -10.5541449 5.0443161 -11.28634644 5.29051208 C-12.7934088 5.79523532 -14.30150883 6.29686906 -15.81054688 6.7956543 C-18.0985087 7.55372266 -20.38133565 8.32594178 -22.6640625 9.09960938 C-24.13252205 9.58941332 -25.60126385 10.078372 -27.0703125 10.56640625 C-27.74458282 10.79558243 -28.41885315 11.02475861 -29.11355591 11.26087952 C-33.74247653 12.7742669 -38.15177876 13.51869059 -43 14 C-40.89734696 11.89734696 -39.96227255 11.51868443 -37.19140625 10.7109375 C-36.07088867 10.38222656 -36.07088867 10.38222656 -34.92773438 10.046875 C-34.14720703 9.82515625 -33.36667969 9.6034375 -32.5625 9.375 C-31.78583984 9.14554688 -31.00917969 8.91609375 -30.20898438 8.6796875 C-26.99111177 7.74841687 -24.37360973 7 -21 7 C-21 6.34 -21 5.68 -21 5 C-21.78503906 5.15597656 -22.57007813 5.31195312 -23.37890625 5.47265625 C-29.25411666 6.56119217 -34.14707229 7.33021084 -40 6 C-40 5.67 -40 5.34 -40 5 C-35.10766336 4.28339752 -30.21467912 3.57145692 -25.32104492 2.86376953 C-23.65744861 2.62252783 -21.99403421 2.38002813 -20.33081055 2.13623047 C-17.93585531 1.78539996 -15.54027571 1.43914466 -13.14453125 1.09375 C-12.03486748 0.92969666 -12.03486748 0.92969666 -10.90278625 0.7623291 C-7.23951642 0.23872264 -3.70182622 -0.12710133 0 0 Z " fill="#A0A4A6" transform="translate(495,764)"/>
<path d="M0 0 C0.33 0.66 0.66 1.32 1 2 C0.3984375 3.78076172 0.3984375 3.78076172 -0.625 5.9296875 C-0.99890869 6.72012451 -1.37281738 7.51056152 -1.75805664 8.32495117 C-2.16789795 9.16646729 -2.57773926 10.0079834 -3 10.875 C-3.40919678 11.72747314 -3.81839355 12.57994629 -4.23999023 13.45825195 C-7.50547073 20.17771589 -11.05819663 26.65002093 -15 33 C-15.66 32.67 -16.32 32.34 -17 32 C-17 31.34 -17 30.68 -17 30 C-18.65 30.99 -20.3 31.98 -22 33 C-20.24301194 28.96394744 -17.56875925 25.61643546 -14.9375 22.125 C-9.60283227 14.96272283 -4.72638398 7.57388445 0 0 Z M-16 27 C-16 30 -16 30 -16 30 Z " fill="#9EA3A4" transform="translate(793,707)"/>
<path d="M0 0 C0.33 0 0.66 0 1 0 C1.33 7.26 1.66 14.52 2 22 C1.01 22 0.02 22 -1 22 C-1.30550781 22.67160156 -1.61101563 23.34320313 -1.92578125 24.03515625 C-5.43910668 31.70509206 -9.04782176 39.32682637 -12.6875 46.9375 C-13.16292236 47.93209229 -13.63834473 48.92668457 -14.12817383 49.95141602 C-16.38075201 54.65412511 -18.64602016 59.34715023 -21 64 C-21.66 64 -22.32 64 -23 64 C-21.57298256 60.30435826 -19.95334329 56.75839448 -18.20703125 53.203125 C-14.76322915 46.15463353 -11.36450443 39.0866901 -8 32 C-7.57831543 31.11441406 -7.15663086 30.22882813 -6.72216797 29.31640625 C-2.07239945 19.4023987 0.11237163 11.02847274 0 0 Z " fill="#2275AD" transform="translate(720,334)"/>
<path d="M0 0 C0.66 0.33 1.32 0.66 2 1 C0.31067055 8.77091546 -1.99038735 16.27314233 -4.5 23.8125 C-4.79656494 24.70735107 -5.09312988 25.60220215 -5.39868164 26.52416992 C-7.06061485 31.45847951 -8.87323231 36.24719294 -11 41 C-11.66 40.67 -12.32 40.34 -13 40 C-10.97312352 33.09618401 -8.7947528 26.25662348 -6.5 19.4375 C-6.20480469 18.55642578 -5.90960937 17.67535156 -5.60546875 16.76757812 C-5.022711 15.02829012 -4.43939441 13.28918923 -3.85546875 11.55029297 C-2.56462941 7.70208871 -1.28196209 3.85116909 0 0 Z " fill="#9BA8B6" transform="translate(1018,641)"/>
<path d="M0 0 C0.66 0.99 1.32 1.98 2 3 C1.443125 4.093125 0.88625 5.18625 0.3125 6.3125 C-1.85627471 10.64235874 -3.8490471 15.04318546 -5.83984375 19.45703125 C-7.15630421 22.34260619 -8.55543573 25.17653346 -10 28 C-10.495 29.010625 -10.99 30.02125 -11.5 31.0625 C-15.4 38.7 -15.4 38.7 -18 40 C-16.61396155 35.53805489 -14.86453645 31.44144001 -12.8125 27.24609375 C-12.35774292 26.31108788 -12.35774292 26.31108788 -11.89379883 25.35719299 C-10.93267864 23.38224254 -9.96668168 21.40973342 -9 19.4375 C-8.03401047 17.46137107 -7.06912123 15.48472184 -6.10620117 13.50709534 C-5.2332912 11.7150985 -4.35697366 9.92476271 -3.48046875 8.13452148 C-2.21335039 5.45171598 -1.0627939 2.76877252 0 0 Z " fill="#9CA8B8" transform="translate(994,707)"/>
<path d="M0 0 C0.33 0 0.66 0 1 0 C2.18109103 24.51078011 2.18109103 24.51078011 2 36 C2 37.29171983 2.01094076 38.58350718 2.03515625 39.875 C2.04869141 40.926875 2.04869141 40.926875 2.0625 42 C2.07410156 42.70125 2.08570313 43.4025 2.09765625 44.125 C2 46 2 46 1 48 C0.34 48 -0.32 48 -1 48 C-1.1661172 31.97891896 -0.65221114 16.00692657 0 0 Z " fill="#99A598" transform="translate(1038,485)"/>
<path d="M0 0 C0.66 0.99 1.32 1.98 2 3 C-0.65105883 7.34305814 -3.3204007 11.67451554 -6 16 C-6.48710449 16.78665039 -6.97420898 17.57330078 -7.47607422 18.38378906 C-9.0411714 20.90508821 -10.61348677 23.42175905 -12.1875 25.9375 C-12.68604492 26.7416333 -13.18458984 27.5457666 -13.69824219 28.37426758 C-16.52842479 32.88140389 -19.48758808 36.99957472 -23 41 C-23 37.32842282 -22.04102253 36.21568336 -20 33.203125 C-19.36328369 32.25058838 -18.72656738 31.29805176 -18.07055664 30.31665039 C-17.38727295 29.30465576 -16.70398926 28.29266113 -16 27.25 C-10.11508153 18.40355818 -4.7085385 9.52237978 0 0 Z " fill="#DCE00B" transform="translate(1001,642)"/>
<path d="M0 0 C0.66 0.66 1.32 1.32 2 2 C-18.13567073 22.71189024 -18.13567073 22.71189024 -25 25 C-23.95588703 22.24733853 -23.25908826 21.15405248 -20.6875 19.625 C-18.18726029 18.11322715 -17.07790432 17.0427593 -15.3125 14.8125 C-14.549375 13.884375 -13.78625 12.95625 -13 12 C-12.34 12 -11.68 12 -11 12 C-11 11.34 -11 10.68 -11 10 C-10.01 9.67 -9.02 9.34 -8 9 C-7.67 8.34 -7.34 7.68 -7 7 C-6.34 7 -5.68 7 -5 7 C-4.731875 6.360625 -4.46375 5.72125 -4.1875 5.0625 C-3 3 -3 3 0 2 C0 1.34 0 0.68 0 0 Z " fill="#CBC9C7" transform="translate(620,495)"/>
<path d="M0 0 C0.66 0.33 1.32 0.66 2 1 C-1.28775279 3.20846132 -4.57762264 5.41372978 -7.86938477 7.61621094 C-9.53185973 8.72948185 -11.19270363 9.84518724 -12.85351562 10.9609375 C-18.14428579 14.49883852 -23.41048256 17.95263037 -29 21 C-27.55873214 17.63704165 -25.79407345 15.37072898 -23 13 C-22.01 13 -21.02 13 -20 13 C-17.76366586 11.77880591 -17.76366586 11.77880591 -15.40234375 10.12109375 C-14.07686523 9.23454102 -14.07686523 9.23454102 -12.72460938 8.33007812 C-10.86204734 7.06531106 -9.00007059 5.79968166 -7.13867188 4.53320312 C-6.25630859 3.94345703 -5.37394531 3.35371094 -4.46484375 2.74609375 C-3.656521 2.19622803 -2.84819824 1.6463623 -2.01538086 1.07983398 C-1.35030518 0.72348877 -0.68522949 0.36714355 0 0 Z " fill="#3FAB3C" transform="translate(806,935)"/>
<path d="M0 0 C0.66 0.66 1.32 1.32 2 2 C1.44570313 2.96421875 0.89140625 3.9284375 0.3203125 4.921875 C-0.41151597 6.19788361 -1.1432836 7.47392712 -1.875 8.75 C-2.23980469 9.38421875 -2.60460937 10.0184375 -2.98046875 10.671875 C-5.10730523 14.38381538 -5.10730523 14.38381538 -7.0625 18.1875 C-8.20621219 20.3986769 -9.61132556 22.27564204 -11.125 24.25 C-11.66382813 24.95640625 -12.20265625 25.6628125 -12.7578125 26.390625 C-13.16773438 26.92171875 -13.57765625 27.4528125 -14 28 C-14.33 27.34 -14.66 26.68 -15 26 C-14.05957031 23.92456055 -14.05957031 23.92456055 -12.578125 21.38671875 C-12.04703125 20.46826172 -11.5159375 19.54980469 -10.96875 18.60351562 C-10.4015625 17.64123047 -9.834375 16.67894531 -9.25 15.6875 C-8.69828125 14.73681641 -8.1465625 13.78613281 -7.578125 12.80664062 C-5.08461965 8.5179313 -2.55717636 4.25104467 0 0 Z " fill="#9DA9B7" transform="translate(975,747)"/>
<path d="M0 0 C0.66 0 1.32 0 2 0 C1.38140585 3.68860399 0.75397214 7.37565264 0.125 11.0625 C-0.04902344 12.10083984 -0.22304688 13.13917969 -0.40234375 14.20898438 C-1.32466574 19.58919599 -2.35989625 24.79156241 -4 30 C-5.125 28.25 -5.125 28.25 -6 26 C-5.56494141 25.15115234 -5.56494141 25.15115234 -5.12109375 24.28515625 C-3.64795075 21.28240833 -3.36449744 18.49942136 -2.9375 15.1875 C-2.78152344 14.00542969 -2.62554688 12.82335937 -2.46484375 11.60546875 C-2.14288821 9.1082842 -1.82269423 6.61087214 -1.50390625 4.11328125 C-1 1 -1 1 0 0 Z " fill="#9BA2AF" transform="translate(840,800)"/>
<path d="M0 0 C12.21 0 24.42 0 37 0 C36.67 0.66 36.34 1.32 36 2 C32.17237956 3.0949682 28.45371517 3.12885041 24.4921875 3.1328125 C23.25855469 3.13410156 22.02492188 3.13539063 20.75390625 3.13671875 C18.83384766 3.13091797 18.83384766 3.13091797 16.875 3.125 C14.94333984 3.13080078 14.94333984 3.13080078 12.97265625 3.13671875 C11.12607422 3.13478516 11.12607422 3.13478516 9.2421875 3.1328125 C8.1166748 3.13168457 6.99116211 3.13055664 5.83154297 3.12939453 C3 3 3 3 0 2 C0 1.34 0 0.68 0 0 Z " fill="#A3A7AB" transform="translate(417,769)"/>
<path d="M0 0 C0.33 0 0.66 0 1 0 C1.33 7.26 1.66 14.52 2 22 C1.01 22 0.02 22 -1 22 C-2.32 24.31 -3.64 26.62 -5 29 C-5.33 28.34 -5.66 27.68 -6 27 C-5.26494222 25.24602066 -4.45978311 23.52126875 -3.625 21.8125 C-0.42314118 14.51297143 -0.1184519 7.88243577 0 0 Z " fill="#4187B6" transform="translate(720,334)"/>
<path d="M0 0 C0 3 0 3 -1.65234375 5.015625 C-6.83355735 10.08170052 -12.16029336 14.7065041 -18 19 C-18.66 18.67 -19.32 18.34 -20 18 C-13.40235323 11.91916889 -6.79775623 5.8580664 0 0 Z " fill="#9BA6B5" transform="translate(865,889)"/>
<path d="M0 0 C1.1796875 1.515625 1.1796875 1.515625 2 4 C1.16613334 6.74068062 0.27872048 9.15290156 -0.875 11.75 C-1.17019531 12.44738281 -1.46539063 13.14476562 -1.76953125 13.86328125 C-2.49917215 15.58146788 -3.24778358 17.29157628 -4 19 C-4.99 19 -5.98 19 -7 19 C-6.57847656 17.87980469 -6.15695312 16.75960937 -5.72265625 15.60546875 C-5.16924176 14.13282342 -4.61585795 12.66016657 -4.0625 11.1875 C-3.78470703 10.44951172 -3.50691406 9.71152344 -3.22070312 8.95117188 C-2.95322266 8.23896484 -2.68574219 7.52675781 -2.41015625 6.79296875 C-2.04096069 5.81106567 -2.04096069 5.81106567 -1.66430664 4.80932617 C-1.07962967 3.21688185 -0.53644441 1.60933324 0 0 Z " fill="#9DAAB0" transform="translate(1004,682)"/>
<path d="M0 0 C0.33 0.99 0.66 1.98 1 3 C0.05957031 4.80932617 0.05957031 4.80932617 -1.421875 6.79296875 C-2.21851563 7.8612793 -2.21851563 7.8612793 -3.03125 8.95117188 C-3.5984375 9.68916016 -4.165625 10.42714844 -4.75 11.1875 C-5.30171875 11.93708984 -5.8534375 12.68667969 -6.421875 13.45898438 C-9.5375677 17.57454481 -9.5375677 17.57454481 -11 19 C-11.99 19 -12.98 19 -14 19 C-13.64695801 18.53102295 -13.29391602 18.0620459 -12.93017578 17.57885742 C-11.3276072 15.44903798 -9.72629122 13.31827996 -8.125 11.1875 C-7.56941406 10.44951172 -7.01382813 9.71152344 -6.44140625 8.95117188 C-5.90644531 8.23896484 -5.37148438 7.52675781 -4.8203125 6.79296875 C-4.32805176 6.1383667 -3.83579102 5.48376465 -3.32861328 4.80932617 C-2.17467505 3.23787519 -1.08145651 1.62218477 0 0 Z " fill="#9BA7B6" transform="translate(944,798)"/>
<path d="M0 0 C0.69649658 0.17805176 1.39299316 0.35610352 2.1105957 0.53955078 C2.86791992 0.72646484 3.62524414 0.91337891 4.40551758 1.10595703 C5.19120117 1.31349609 5.97688477 1.52103516 6.78637695 1.73486328 C7.58366211 1.93466797 8.38094727 2.13447266 9.20239258 2.34033203 C11.17080519 2.83538191 13.1352557 3.34613751 15.09887695 3.85986328 C12.09887695 5.85986328 12.09887695 5.85986328 9.86450195 5.68798828 C9.0343457 5.49720703 8.20418945 5.30642578 7.34887695 5.10986328 C6.46973633 4.91134766 5.5905957 4.71283203 4.68481445 4.50830078 C1.461826 3.70011939 -1.72223949 2.82734958 -4.90112305 1.85986328 C-1.90112305 -0.14013672 -1.90112305 -0.14013672 0 0 Z " fill="#92A2AC" transform="translate(210.901123046875,598.14013671875)"/>
<path d="M0 0 C0.33 0 0.66 0 1 0 C1.02694851 1.95825873 1.04637218 3.91662226 1.0625 5.875 C1.07410156 6.96554687 1.08570313 8.05609375 1.09765625 9.1796875 C1 12 1 12 0 14 C-0.66 14 -1.32 14 -2 14 C-2.33 15.32 -2.66 16.64 -3 18 C-2.57045059 11.74892565 -1.98598493 5.95795479 0 0 Z " fill="#F7F004" transform="translate(1033,552)"/>
<path d="M0 0 C10.395 0.99 10.395 0.99 21 2 C15.98451577 5.34365616 10.74206213 4.0440113 5 3 C2.0625 1.9375 2.0625 1.9375 0 1 C0 0.67 0 0.34 0 0 Z " fill="#A8ADB1" transform="translate(394,767)"/>
<path d="M0 0 C0.66 0.66 1.32 1.32 2 2 C-1.63 6.95 -5.26 11.9 -9 17 C-9.66 16.67 -10.32 16.34 -11 16 C-7.37 10.72 -3.74 5.44 0 0 Z " fill="#9BA8B8" transform="translate(956,780)"/>
<path d="M0 0 C-3.25273307 3.25273307 -7.54334896 4.16743882 -12 5 C-15.125 4.1875 -15.125 4.1875 -17 3 C-17 2.67 -17 2.34 -17 2 C-15.10507994 1.66151348 -13.20901534 1.32943089 -11.3125 1 C-9.72888672 0.7215625 -9.72888672 0.7215625 -8.11328125 0.4375 C-5.35095938 0.04931926 -2.78257957 -0.08259976 0 0 Z " fill="#909BA1" transform="translate(495,764)"/>
<path d="M0 0 C0.33 0 0.66 0 1 0 C1.23668569 7.03482474 0.7879537 13.1834265 -1 20 C-1.66 20 -2.32 20 -3 20 C-2.85962479 18.18706911 -2.71255111 16.3746557 -2.5625 14.5625 C-2.48128906 13.55316406 -2.40007812 12.54382813 -2.31640625 11.50390625 C-2 9 -2 9 -1 8 C-0.76924918 6.65252916 -0.58846937 5.29622435 -0.4375 3.9375 C-0.2209375 1.9884375 -0.2209375 1.9884375 0 0 Z " fill="#0B264C" transform="translate(1034,531)"/>
<path d="M0 0 C2.30143236 3.45214853 2.13833854 4.23479324 1.625 8.1875 C1.51414062 9.08855469 1.40328125 9.98960937 1.2890625 10.91796875 C1.19367188 11.60503906 1.09828125 12.29210937 1 13 C0.01 13.33 -0.98 13.66 -2 14 C-1.34 9.38 -0.68 4.76 0 0 Z " fill="#99A7BA" transform="translate(1034,562)"/>
<path d="M0 0 C-0.33 0.99 -0.66 1.98 -1 3 C-3.64 3 -6.28 3 -9 3 C-9.33 2.34 -9.66 1.68 -10 1 C-6.61981469 -0.04005702 -3.5219721 -0.08004482 0 0 Z M-13 3 C-9 4 -9 4 -9 4 Z " fill="#AFB7BD" transform="translate(456,411)"/>
<path d="M0 0 C0.33 0.66 0.66 1.32 1 2 C-0.07353741 3.4655595 -1.1592554 4.92220152 -2.25 6.375 C-2.85328125 7.18710937 -3.4565625 7.99921875 -4.078125 8.8359375 C-5.97181904 10.96826778 -7.38328518 11.94636704 -10 13 C-6.73279209 8.61105071 -3.45101522 4.24740335 0 0 Z " fill="#9CA7B8" transform="translate(929,819)"/>
<path d="M0 0 C1.64637489 5.65709266 0.40351885 10.71225854 -2 16 C-3.3805087 12.23331402 -2.59568159 9.55210827 -1.5625 5.75 C-1.27503906 4.67234375 -0.98757813 3.5946875 -0.69140625 2.484375 C-0.46324219 1.66453125 -0.23507812 0.8446875 0 0 Z " fill="#96A4C1" transform="translate(1027,605)"/>
<path d="M0 0 C-5.27913453 2.08386889 -10.39538469 2.57910004 -16 3 C-12.96751708 0.37654966 -10.85901904 -0.44079255 -6.875 -0.75 C-6.00617188 -0.82734375 -5.13734375 -0.9046875 -4.2421875 -0.984375 C-2 -1 -2 -1 0 0 Z " fill="#A8AEB3" transform="translate(427,784)"/>
<path d="M0 0 C0.66 0.99 1.32 1.98 2 3 C1.3203125 5.48046875 1.3203125 5.48046875 0.125 8.1875 C-0.26429688 9.08855469 -0.65359375 9.98960937 -1.0546875 10.91796875 C-1.36664062 11.60503906 -1.67859375 12.29210937 -2 13 C-2.66 12.01 -3.32 11.02 -4 10 C-3.3203125 7.51953125 -3.3203125 7.51953125 -2.125 4.8125 C-1.73570312 3.91144531 -1.34640625 3.01039063 -0.9453125 2.08203125 C-0.63335938 1.39496094 -0.32140625 0.70789063 0 0 Z " fill="#A0AAB5" transform="translate(819,875)"/>
<path d="M0 0 C0.66 0.66 1.32 1.32 2 2 C1.7578125 4.3828125 1.7578125 4.3828125 1.125 7.125 C0.92132812 8.03507813 0.71765625 8.94515625 0.5078125 9.8828125 C0.34023438 10.58148437 0.17265625 11.28015625 0 12 C-0.99 12 -1.98 12 -3 12 C-2.01 8.04 -1.02 4.08 0 0 Z " fill="#99A5A9" transform="translate(833,832)"/>
<path d="M0 0 C0.33 0.66 0.66 1.32 1 2 C-6.42857143 6.28571429 -6.42857143 6.28571429 -10 8 C-10.66 7.34 -11.32 6.68 -12 6 C-8.04 4.02 -4.08 2.04 0 0 Z " fill="#A9B1B7" transform="translate(689,806)"/>
<path d="M0 0 C1.32 0.33 2.64 0.66 4 1 C-0.39453125 5.00390625 -0.39453125 5.00390625 -2 6 C-2.99 5.67 -3.98 5.34 -5 5 C-3.625 3.5 -3.625 3.5 -2 2 C-1.34 2 -0.68 2 0 2 C0 1.34 0 0.68 0 0 Z " fill="#BFC3C4" transform="translate(609,505)"/>
<path d="M0 0 C0 3 0 3 -1.3125 4.60546875 C-1.869375 5.12753906 -2.42625 5.64960937 -3 6.1875 C-3.556875 6.71730469 -4.11375 7.24710938 -4.6875 7.79296875 C-5.120625 8.19128906 -5.55375 8.58960938 -6 9 C-6.99 8.67 -7.98 8.34 -9 8 C-6.03 5.36 -3.06 2.72 0 0 Z " fill="#9FA5A9" transform="translate(737,773)"/>
<path d="M0 0 C1.21236328 0.01353516 1.21236328 0.01353516 2.44921875 0.02734375 C3.37154297 0.04474609 3.37154297 0.04474609 4.3125 0.0625 C4.3125 0.3925 4.3125 0.7225 4.3125 1.0625 C-4.11607143 3.34821429 -4.11607143 3.34821429 -8.6875 3.0625 C-6.88341097 -0.54567807 -3.60175697 -0.05219938 0 0 Z " fill="#1B3951" transform="translate(652.6875,181.9375)"/>
<path d="M0 0 C1.2380014 3.57644848 0.74926071 6.33694766 0 10 C-1.76462683 6.91190305 -2 5.76687864 -2 2 C-1.34 2 -0.68 2 0 2 C0 1.34 0 0.68 0 0 Z M-4 4 C-3.01 5.485 -3.01 5.485 -2 7 C-2.66 7 -3.32 7 -4 7 C-4 6.01 -4 5.02 -4 4 Z " fill="#E9DE1C" transform="translate(1033,564)"/>
<path d="M0 0 C0 0.99 0 1.98 0 3 C-2.8125 5.75 -2.8125 5.75 -6 8 C-6.99 7.67 -7.98 7.34 -9 7 C-6.03 4.69 -3.06 2.38 0 0 Z " fill="#A3A9AD" transform="translate(722,785)"/>
<path d="M0 0 C0.66 0 1.32 0 2 0 C1.67 2.64 1.34 5.28 1 8 C0.01 8 -0.98 8 -2 8 C-1.125 1.125 -1.125 1.125 0 0 Z " fill="#96A0A4" transform="translate(840,800)"/>
<path d="M0 0 C2.64752004 2.57784846 4.94432065 4.91648098 7 8 C3.34683329 6.75023244 2.21934164 6.32901247 0 3 C0 2.01 0 1.02 0 0 Z " fill="#96A4AF" transform="translate(192,651)"/>
<path d="M0 0 C2.97 0.99 5.94 1.98 9 3 C8.01 3.99 7.02 4.98 6 6 C5.67 5.01 5.34 4.02 5 3 C3.68 3 2.36 3 1 3 C0.67 2.01 0.34 1.02 0 0 Z " fill="#A4B6C4" transform="translate(657,443)"/>
<path d="M0 0 C2.09350689 3.4019487 2.17942163 6.05272412 2 10 C1.34 10 0.68 10 0 10 C-1.125 3.375 -1.125 3.375 0 0 Z " fill="#99A6B0" transform="translate(1032,422)"/>
</svg>
