<?xml version="1.0" encoding="UTF-8"?>
<svg version="1.1" xmlns="http://www.w3.org/2000/svg" width="1024" height="1024">
<path d="M0 0 C337.92 0 675.84 0 1024 0 C1024 337.92 1024 675.84 1024 1024 C686.08 1024 348.16 1024 0 1024 C0 686.08 0 348.16 0 0 Z " fill="#FEFEFE" transform="translate(0,0)"/>
<path d="M0 0 C3.70390021 2.02666238 5.65363011 3.48044516 8 7 C8.64125303 13.08426983 6.95074569 17.64826883 4.75 23.1875 C4.10556775 24.87323849 3.46233667 26.55943666 2.8203125 28.24609375 C2.50739258 29.05933105 2.19447266 29.87256836 1.87207031 30.71044922 C-0.78831557 37.69507934 -3.32052071 44.52572778 -4 52 C2.1362033 51.08609738 5.75047 48.34425828 10.00390625 43.8828125 C13.03575961 39.504128 13.84725515 34.92619242 15 29.78515625 C18.04386134 18.26366546 25.48022041 10.21578697 35.078125 3.55859375 C39.89271592 0.92159452 44.77762642 0.60888647 50.1875 0.5 C50.86506348 0.48122803 51.54262695 0.46245605 52.24072266 0.44311523 C58.45246261 0.52314379 61.8438055 3.1275153 66.375 7.0625 C68.9241483 11.67057577 68.78546231 15.86004489 68 21 C65.26651764 29.44234817 60.40540445 34.44486542 52.875 38.8125 C47.65903659 40.96691967 42.77648311 41.13202802 37.1875 41.0625 C36.49462891 41.05798828 35.80175781 41.05347656 35.08789062 41.04882812 C33.39188932 41.03713156 31.69593297 41.01919924 30 41 C30.45142881 42.29409592 30.91141021 43.58521059 31.375 44.875 C31.63023437 45.59429688 31.88546875 46.31359375 32.1484375 47.0546875 C32.93877783 49.18157994 32.93877783 49.18157994 35 51 C44.90880603 52.41944329 52.75561172 50.59261095 61 45 C62.91978408 43.29274975 62.91978408 43.29274975 64.5 41.5625 C65.325 40.716875 66.15 39.87125 67 39 C69.15625 39.33984375 69.15625 39.33984375 71 40 C71.11324798 45.32265522 69.7390544 47.7607342 66.0625 51.625 C55.76422149 61.23563511 43.9493726 63.70231243 30.28125 63.3828125 C25.20055969 63.07788333 21.5343953 61.75977703 18 58 C15.69972066 54.98088336 15 53.79198146 15 50 C14.27296875 50.67095703 14.27296875 50.67095703 13.53125 51.35546875 C5.39509114 58.69365819 -1.12535284 63.36706116 -12.328125 63.29296875 C-15.89855298 62.90147445 -17.64508324 61.66890566 -20 59 C-23.33448656 52.33102689 -20.40355277 44.04662182 -18.22265625 37.45703125 C-17.36553405 35.03353878 -16.50036969 32.61461617 -15.62109375 30.19921875 C-15.39317139 29.57112305 -15.16524902 28.94302734 -14.93041992 28.29589844 C-14.28214512 26.52529644 -13.61803751 24.76051519 -12.953125 22.99609375 C-11.79789842 19.88871293 -11.79789842 19.88871293 -12 16 C-19.34118616 16.69514819 -22.4078278 20.57434454 -27 26 C-34.44718841 35.70661484 -38.80209572 47.0056807 -40.4453125 59.109375 C-41 61 -41 61 -44 63 C-46.12109375 63.30078125 -46.12109375 63.30078125 -48.4375 63.3125 C-49.19933594 63.32925781 -49.96117187 63.34601562 -50.74609375 63.36328125 C-53.62366181 62.89947912 -54.95694472 62.07054032 -57 60 C-58.94108673 51.67013964 -55.28018511 43.1747163 -52.2421875 35.578125 C-51.92644775 34.78470703 -51.61070801 33.99128906 -51.28540039 33.17382812 C-50.64749642 31.58459083 -49.99859661 29.9997135 -49.33764648 28.41992188 C-47.58694445 24.10386717 -46.59922443 20.74881247 -47 16 C-52.70658039 16.11888709 -55.76229963 17.68125353 -59.890625 21.6015625 C-68.53383647 31.42921406 -73.51743145 42.97750392 -78.18359375 55.06640625 C-78.71146484 56.42572266 -78.71146484 56.42572266 -79.25 57.8125 C-79.54390625 58.60269531 -79.8378125 59.39289062 -80.140625 60.20703125 C-81 62 -81 62 -83 63 C-90.13669065 63.57553957 -90.13669065 63.57553957 -93.4375 61.375 C-95.28765829 58.5627594 -95.69750921 56.32739873 -96 53 C-96.58007812 53.47050781 -97.16015625 53.94101562 -97.7578125 54.42578125 C-105.67431512 60.73546898 -110.62693672 63.31496355 -120.87890625 63.49609375 C-124.64785162 62.89702484 -126.28961129 61.63196879 -129 59 C-132.87750048 51.24499905 -129.81807051 39.85328622 -127.26834106 32.04598999 C-126.5895271 30.04604709 -125.88925506 28.05449264 -125.1875 26.0625 C-124.7290801 24.7057656 -124.27269238 23.34834283 -123.81835938 21.99023438 C-122.58100559 18.31407899 -121.29740275 14.65543629 -120 11 C-119.69529785 10.12585449 -119.3905957 9.25170898 -119.07666016 8.35107422 C-117.2510307 3.2510307 -117.2510307 3.2510307 -115 1 C-112.7578125 0.69921875 -112.7578125 0.69921875 -110.125 0.6875 C-109.26132813 0.67074219 -108.39765625 0.65398437 -107.5078125 0.63671875 C-104.47908976 1.07545896 -103.1181576 1.79829558 -101 4 C-99.21119385 14.23036327 -106.20871197 26.27966743 -110.25 35.375 C-112.45160255 40.38787965 -113.78151319 44.53782978 -114 50 C-108.22843464 50.46172523 -105.49491969 49.63419038 -101 46 C-99.92703277 44.92703277 -98.86453717 43.84349676 -97.8125 42.75 C-95 40 -95 40 -92 40 C-91.74259033 39.13145386 -91.74259033 39.13145386 -91.47998047 38.24536133 C-89.43116866 31.37011296 -87.32101222 24.51718279 -85.125 17.6875 C-84.79886719 16.62982422 -84.47273438 15.57214844 -84.13671875 14.48242188 C-82.2922424 8.79468837 -80.88733771 4.61647301 -76 1 C-72.6303372 0.44985097 -70.75559341 0.6818554 -67.625 2 C-65.12443463 5.07761891 -65.74135188 8.25678693 -66 12 C-66 13.32 -66 14.64 -66 16 C-65.46632813 15.41992188 -64.93265625 14.83984375 -64.3828125 14.2421875 C-57.48471684 7.00992804 -51.10374138 0.77071505 -40.6875 0.375 C-36.84622556 0.57249483 -35.18595279 0.89061601 -31.8125 2.875 C-29.16183655 5.98267439 -28.88034774 7.6243415 -28.9375 11.625 C-28.94652344 12.44226563 -28.95554687 13.25953125 -28.96484375 14.1015625 C-28.97644531 14.72804688 -28.98804688 15.35453125 -29 16 C-28.55011719 15.50371094 -28.10023438 15.00742187 -27.63671875 14.49609375 C-20.18079322 6.62179965 -11.37934297 -0.9643511 0 0 Z " fill="#151415" transform="translate(267,481)"/>
<path d="M0 0 C1.6328125 1.3828125 1.6328125 1.3828125 3.8828125 3.8828125 C4.7078125 3.0578125 5.5328125 2.2328125 6.3828125 1.3828125 C8.96776778 -0.78462032 10.69136276 -1.49847577 14.0703125 -1.5546875 C17.8828125 -1.1171875 17.8828125 -1.1171875 20.8828125 0.8828125 C20.37166497 6.37313828 19.38724572 10.70580165 17.1953125 15.8203125 C16.65495744 17.12132122 16.11730209 18.42345376 15.58203125 19.7265625 C15.30407715 20.40074219 15.02612305 21.07492187 14.73974609 21.76953125 C13.2565884 25.4271418 11.86460479 29.11420264 10.5078125 32.8203125 C10.24524658 33.50536865 9.98268066 34.1904248 9.7121582 34.89624023 C7.96157952 39.74042794 7.64122531 43.73470461 7.8828125 48.8828125 C13.6073232 47.97894239 17.27243702 46.64503905 21.21875 42.3203125 C26.56198798 34.49359771 29.06475123 24.86920008 31.17578125 15.74609375 C31.9247712 12.71289137 32.81607892 9.77873036 33.8203125 6.8203125 C34.11808594 5.94246094 34.41585937 5.06460937 34.72265625 4.16015625 C36.0822117 1.49139925 37.30574909 0.38088114 39.8828125 -1.1171875 C43.47315863 -1.50186744 45.96878654 -1.49217251 49.3203125 -0.1171875 C51.75930674 3.00472512 51.15941052 6.07190639 50.8828125 9.8828125 C50.8828125 10.8728125 50.8828125 11.8628125 50.8828125 12.8828125 C51.9346875 11.86960937 51.9346875 11.86960937 53.0078125 10.8359375 C65.74550307 -1.1402607 65.74550307 -1.1402607 75.5078125 -1.6796875 C78.95567162 -1.51664548 81.64629032 -1.19873496 84.5703125 0.6953125 C87.9164731 5.30758793 87.40460507 9.36533923 86.8828125 14.8828125 C87.57246094 14.14675781 88.26210938 13.41070312 88.97265625 12.65234375 C96.14003705 5.14090813 102.21107724 -1.19543396 113.1328125 -1.7421875 C117.00515184 -1.54461917 118.71520189 -1.21388593 122.1328125 0.7578125 C124.63536025 5.22664776 124.51044902 8.84845458 123.8828125 13.8828125 C122.53538666 18.52685988 120.76363383 22.96772722 118.9453125 27.4453125 C115.91372001 34.99718871 113.29292492 41.70674158 112.8828125 49.8828125 C119.80287031 48.72946953 123.3963142 45.13529832 127.8828125 39.8828125 C128.2128125 39.2228125 128.5428125 38.5628125 128.8828125 37.8828125 C130.2028125 37.8828125 131.5228125 37.8828125 132.8828125 37.8828125 C133.68359375 40.50390625 133.68359375 40.50390625 133.8828125 43.8828125 C132.34279517 46.27122261 131.02672757 47.95956396 129.0703125 49.9453125 C128.56693359 50.46899414 128.06355469 50.99267578 127.54492188 51.53222656 C121.56953407 57.51136304 115.72134429 61.02035529 107.1328125 61.5078125 C103.14728219 61.26472342 99.75041258 60.89908902 96.96191406 57.84399414 C94.07180166 52.5914437 95.3135751 45.11168739 96.7355957 39.54370117 C97.86055437 36.25890062 99.08530472 33.04070342 100.3828125 29.8203125 C101.23191548 27.64400801 102.07590386 25.46569912 102.9140625 23.28515625 C103.29111328 22.34148193 103.66816406 21.39780762 104.05664062 20.42553711 C105.0888217 17.69437012 105.0888217 17.69437012 104.8828125 13.8828125 C99.50644423 14.01722171 96.67065354 16.14112844 92.8984375 19.67578125 C84.65494649 28.70208439 77.75317873 42.32421126 76.5078125 54.5703125 C75.8828125 57.8828125 75.8828125 57.8828125 74.3203125 59.8203125 C70.06970869 61.6731398 65.78801307 61.56673065 61.4453125 60.0078125 C59.8828125 58.8828125 59.8828125 58.8828125 58.8828125 56.8828125 C58.04393472 48.44160488 60.75096852 42.01124245 63.8828125 34.2578125 C64.83105051 31.8949059 65.76892284 29.52780753 66.6953125 27.15625 C67.11425781 26.11903809 67.53320312 25.08182617 67.96484375 24.01318359 C68.99302854 20.50696407 69.04271754 17.51779682 68.8828125 13.8828125 C65.74734368 13.56037067 64.23113265 13.66482406 61.5234375 15.359375 C49.09085916 26.53244377 41.68117246 40.76991345 37.65625 56.921875 C36.8828125 58.8828125 36.8828125 58.8828125 33.8828125 60.8828125 C26.81974944 61.55548517 26.81974944 61.55548517 23.4453125 59.1328125 C21.91546006 56.92982499 21.43942298 55.45510948 20.8828125 52.8828125 C20.36332031 53.29273438 19.84382812 53.70265625 19.30859375 54.125 C18.26251953 54.93324219 18.26251953 54.93324219 17.1953125 55.7578125 C16.51082031 56.29148437 15.82632813 56.82515625 15.12109375 57.375 C9.39105633 61.23502521 3.64524561 61.85904345 -3.1171875 60.8828125 C-7.87167224 57.68081258 -8.96154434 54.24079444 -10.1171875 48.8828125 C-10.54128906 49.41390625 -10.96539063 49.945 -11.40234375 50.4921875 C-15.8733586 55.87705813 -19.62548419 60.25331831 -26.79296875 61.2578125 C-31.31625776 61.45367887 -34.45133171 61.18006955 -38.6171875 59.3203125 C-43.87000845 54.19881207 -44.32853321 49.83011553 -44.5546875 42.6953125 C-44.2271942 28.84507504 -38.63058909 17.41963471 -29.1171875 7.4453125 C-21.85539146 0.57756741 -9.8565478 -5.20105659 0 0 Z " fill="#151414" transform="translate(853.1171875,483.1171875)"/>
<path d="M0 0 C4.28187167 2.45811152 4.28187167 2.45811152 6 5 C7.15456318 9.75819978 6.45113635 13.14439658 4.1875 17.4375 C1.77260296 20.26637939 0.1950584 21.85426117 -3.5625 22.3125 C-4.366875 22.209375 -5.17125 22.10625 -6 22 C-6.99 20.515 -6.99 20.515 -8 19 C-10.28133797 18.24462341 -10.28133797 18.24462341 -13 19 C-22.34589833 24.76475972 -26.66925757 34.45984179 -29.25 44.6875 C-29.73341468 46.50416206 -30.21776499 48.32057546 -30.703125 50.13671875 C-30.92677734 50.97895996 -31.15042969 51.82120117 -31.38085938 52.68896484 C-33.52207837 60.68138558 -33.52207837 60.68138558 -37 63 C-43.96517413 63.66334992 -43.96517413 63.66334992 -47.4375 61.4375 C-49.42485917 58.33721969 -49.56489917 55.62020791 -50 52 C-58.56011554 58.35142262 -64.80019013 63.02577688 -67.23828125 73.8359375 C-69.62923435 83.76758886 -76.7267949 93.75040945 -85.1796875 99.4765625 C-92.02773543 103.06855745 -99.3538972 103.80839853 -107 103 C-111.43793873 100.86027954 -114.08717799 98.56951925 -116 94 C-116.52496204 89.87529822 -116.33392192 87.65448697 -114.4375 83.9375 C-107.79221767 75.92908283 -99.34611175 71.70021998 -90.18554688 67.03125 C-83.66457032 63.5274417 -80.53673801 61.03542444 -78 54 C-78.66 54 -79.32 54 -80 54 C-80.2371875 54.60328125 -80.474375 55.2065625 -80.71875 55.828125 C-83.16081361 59.96772063 -87.61782995 61.43712816 -92 63 C-96.40603965 63.88120793 -100.11343012 64.05313143 -104.11328125 61.8203125 C-107.70142688 58.95276755 -109.67102696 56.45268072 -111 52 C-111.87064496 42.09894454 -111.63254805 32.9893492 -107 24 C-106.2884375 22.61554688 -106.2884375 22.61554688 -105.5625 21.203125 C-100.62149788 12.60388092 -92.87656496 4.3297625 -83.109375 1.36328125 C-77.93358379 0.47189499 -72.21448995 -0.44907899 -67.671875 2.5234375 C-66.84429688 3.25433594 -66.84429688 3.25433594 -66 4 C-63.3094472 2.77992056 -63.3094472 2.77992056 -61 1 C-58.85546875 0.796875 -58.85546875 0.796875 -56.1875 0.75 C-55.31480469 0.72421875 -54.44210937 0.6984375 -53.54296875 0.671875 C-50.56095623 1.05665081 -49.2228886 2.03100777 -47 4 C-47.65979322 9.39120513 -49.38367459 14.12731268 -51.25 19.1875 C-54.783851 28.98536476 -57.51839749 38.89061468 -60 49 C-58.77004051 48.0843974 -57.54107614 47.16745797 -56.3125 46.25 C-55.62800781 45.73953125 -54.94351563 45.2290625 -54.23828125 44.703125 C-53.49964844 44.14109375 -52.76101563 43.5790625 -52 43 C-51.17733643 42.42822021 -50.35467285 41.85644043 -49.50708008 41.26733398 C-46.57589661 38.61645261 -45.82777406 36.76230676 -44.6484375 33.01953125 C-44.27203125 31.85486328 -43.895625 30.69019531 -43.5078125 29.49023438 C-43.13398437 28.27658203 -42.76015625 27.06292969 -42.375 25.8125 C-41.80265625 24.02102539 -41.80265625 24.02102539 -41.21875 22.19335938 C-39.83805184 17.86796533 -38.47758321 13.53646721 -37.12988281 9.20068359 C-35.22195678 3.22195678 -35.22195678 3.22195678 -33 1 C-29.29632397 0.6505966 -26.62458824 0.76917391 -23.125 2.0625 C-20.1260878 4.7968023 -20.21214667 7.03992887 -20 11 C-20 11.99 -20 12.98 -20 14 C-19.24074219 13.15695312 -18.48148438 12.31390625 -17.69921875 11.4453125 C-16.69548204 10.33838791 -15.69156642 9.23162553 -14.6875 8.125 C-14.18798828 7.56941406 -13.68847656 7.01382812 -13.17382812 6.44140625 C-8.98586587 1.83742125 -6.4394901 -0.88385158 0 0 Z " fill="#141414" transform="translate(809,481)"/>
<path d="M0 0 C1.02416016 -0.00773437 2.04832031 -0.01546875 3.10351562 -0.0234375 C13.73945361 0.00374701 23.43050975 1.49396297 31.6875 8.625 C38.9401222 17.08639257 39.70968689 24.38808756 39.15966797 35.10546875 C37.94824228 46.79905473 29.31739689 57.98964123 20.59765625 65.36328125 C12.00348425 71.45870721 1.70698889 76.6393701 -9 76.375 C-9.95777344 76.35695313 -10.91554688 76.33890625 -11.90234375 76.3203125 C-12.61519531 76.29710937 -13.32804688 76.27390625 -14.0625 76.25 C-14.18753906 77.08402344 -14.31257812 77.91804687 -14.44140625 78.77734375 C-15.10954002 82.51300993 -16.0123827 86.15207456 -17 89.8125 C-17.16951172 90.45896484 -17.33902344 91.10542969 -17.51367188 91.77148438 C-20.14137662 101.59290552 -20.14137662 101.59290552 -22.875 103.54296875 C-25.36953835 104.34923918 -27.441562 104.550514 -30.0625 104.5625 C-30.908125 104.57925781 -31.75375 104.59601563 -32.625 104.61328125 C-35.70271345 104.15458357 -36.99623237 103.59846621 -39.0625 101.25 C-39.3875605 96.38883446 -38.77665048 92.47608863 -37.3046875 87.85546875 C-36.92932861 86.66179687 -36.55396973 85.468125 -36.16723633 84.23828125 C-35.76142334 82.98402344 -35.35561035 81.72976563 -34.9375 80.4375 C-34.52094731 79.12524772 -34.10518156 77.8127454 -33.69018555 76.5 C-31.26742294 68.86491731 -28.7506112 61.2624512 -26.17041016 53.67919922 C-23.64054694 46.1604245 -21.50023208 38.53146354 -19.359375 30.89453125 C-19.13701172 30.1051416 -18.91464844 29.31575195 -18.68554688 28.50244141 C-18.28238674 27.04493537 -17.89216302 25.58376261 -17.51757812 24.11865234 C-17.08903841 22.4799465 -16.5833785 20.86173469 -16.0625 19.25 C-13.47496844 17.95623422 -11.51291015 18.08167603 -8.625 18.0625 C-7.65691406 18.04832031 -6.68882812 18.03414063 -5.69140625 18.01953125 C-3.0625 18.25 -3.0625 18.25 -0.0625 20.25 C-0.63904983 27.07134863 -1.99251412 33.30309698 -3.875 39.875 C-4.41572617 41.80719051 -4.95608899 43.73948274 -5.49609375 45.671875 C-5.76147949 46.61353516 -6.02686523 47.55519531 -6.30029297 48.52539062 C-7.379497 52.38314751 -8.41286319 56.25245454 -9.4375 60.125 C-9.91316406 61.91550781 -9.91316406 61.91550781 -10.3984375 63.7421875 C-10.72714844 64.98355469 -10.72714844 64.98355469 -11.0625 66.25 C-0.53156927 64.35008982 7.96208699 60.90745837 14.3125 51.9375 C15.2254636 50.39687392 16.10127936 48.83359284 16.9375 47.25 C17.35 46.48945313 17.7625 45.72890625 18.1875 44.9453125 C21.59111077 37.73627581 22.85054711 28.80499777 20.20703125 21.12890625 C17.88040317 17.32083335 14.39286684 15.03527498 10.203125 13.6953125 C-2.97935849 11.10427264 -18.92567166 13.84425424 -30.30078125 20.97265625 C-36.48877394 25.45929397 -39.56352329 30.75511647 -41.0625 38.25 C-45.20248349 38.57470459 -47.40249001 38.6804413 -50.9375 36.375 C-53.73798165 33.57451835 -54.00843047 32.69028046 -54.5 28.6875 C-54.36726223 23.04103941 -51.83499763 19.30614407 -48.0625 15.25 C-34.41747147 3.75509718 -17.43004026 -0.13212917 0 0 Z " fill="#151515" transform="translate(557.0625,439.75)"/>
<path d="M0 0 C0.24374096 4.14359626 0.34135704 7.8783983 -0.875 11.875 C-5.81616116 16.81616116 -13.28298576 17.19254593 -19.9609375 17.328125 C-22.43240654 17.31761929 -24.90385398 17.29131488 -27.375 17.25 C-28.63183594 17.24484375 -29.88867188 17.2396875 -31.18359375 17.234375 C-41.19354233 17.14872838 -41.19354233 17.14872838 -45 16 C-45.21914062 17.03253906 -45.43828125 18.06507813 -45.6640625 19.12890625 C-49.22641861 35.66553614 -53.15959235 52.12182569 -58.7109375 68.11328125 C-60.93240103 74.6438278 -62.70594469 81.31809409 -64.5703125 87.95703125 C-65.04666961 89.63807905 -65.52323583 91.3190676 -66 93 C-66.25620117 93.92087402 -66.51240234 94.84174805 -66.77636719 95.79052734 C-67.03321289 96.68852051 -67.29005859 97.58651367 -67.5546875 98.51171875 C-67.78397949 99.32471436 -68.01327148 100.13770996 -68.24951172 100.9753418 C-69 103 -69 103 -71 105 C-73.8648158 105.9549386 -76.55433734 106.16205023 -79.5625 106.1875 C-80.32691406 106.20167969 -81.09132813 106.21585938 -81.87890625 106.23046875 C-84 106 -84 106 -87 104 C-87.53186466 98.79449038 -86.47486316 94.3946394 -84.83984375 89.50390625 C-84.61460022 88.80189087 -84.38935669 88.09987549 -84.1572876 87.37658691 C-83.67547534 85.87808276 -83.18920323 84.38100634 -82.69882202 82.88528442 C-81.4092586 78.95084177 -80.1525358 75.00587943 -78.890625 71.0625 C-78.6393132 70.28044693 -78.3880014 69.49839386 -78.1290741 68.69264221 C-76.04099387 62.17977875 -74.07654872 55.6359496 -72.1875 49.0625 C-71.91655518 48.12204834 -71.64561035 47.18159668 -71.36645508 46.21264648 C-70.84036612 44.38522184 -70.31471858 42.55767005 -69.78955078 40.72998047 C-68.42750529 36.02052076 -67.02923863 31.32202368 -65.625 26.625 C-65.37387451 25.77945557 -65.12274902 24.93391113 -64.86401367 24.06274414 C-63.1186074 18.2372148 -63.1186074 18.2372148 -62 16 C-77.41670423 17.30600544 -77.41670423 17.30600544 -90.9375 24.3125 C-94.78358768 29.32406879 -96.40473476 34.98707717 -98 41 C-100.6875 41.3125 -100.6875 41.3125 -104 41 C-109.66575192 36.21558727 -109.66575192 36.21558727 -110.2734375 32.1875 C-110.63353001 24.43166137 -108.09024137 18.67488163 -103.12109375 12.765625 C-90.82923795 0.72277549 -73.57459217 -0.28509139 -57.32421875 -0.44921875 C-55.825903 -0.47052005 -54.32759662 -0.49248949 -52.82929993 -0.51509094 C-49.70875387 -0.56020087 -46.58821593 -0.59907229 -43.4675293 -0.63305664 C-39.47511433 -0.67678674 -35.4830159 -0.73355065 -31.49083233 -0.7946043 C-28.40506474 -0.84083483 -25.3192445 -0.88159775 -22.23337746 -0.92057228 C-20.76100668 -0.9395573 -19.2886528 -0.95990498 -17.81632042 -0.98166466 C-15.76127611 -1.01093957 -13.70627326 -1.03318219 -11.65112305 -1.0534668 C-10.48437546 -1.06741989 -9.31762787 -1.08137299 -8.11552429 -1.0957489 C-5.27741739 -1.00852582 -2.75558109 -0.65661331 0 0 Z " fill="#151414" transform="translate(177,438)"/>
<path d="M0 0 C4.79327778 0.50135161 9.6130379 0.62454517 14.42700195 0.80981445 C15.48338867 0.85299805 16.53977539 0.89618164 17.62817383 0.94067383 C20.20685074 1.04568782 22.7856063 1.14784322 25.36450195 1.24731445 C26.33183259 4.32157074 26.43017317 5.07219121 25.23950195 8.24731445 C22.64033404 12.40598311 20.02069601 14.69524977 15.36450195 16.24731445 C13.30087205 16.39761434 11.23326281 16.49575893 9.1652832 16.5637207 C7.35253906 16.6265625 7.35253906 16.6265625 5.50317383 16.69067383 C4.24053711 16.72999023 2.97790039 16.76930664 1.67700195 16.80981445 C-0.23435547 16.87458984 -0.23435547 16.87458984 -2.18432617 16.94067383 C-5.33460656 17.04686305 -8.48496644 17.14890978 -11.63549805 17.24731445 C-12.16336914 19.10356445 -12.16336914 19.10356445 -12.7019043 20.99731445 C-18.2349733 40.42770351 -23.81690314 59.8358529 -29.85888672 79.11523438 C-31.30754951 83.7703561 -32.72032722 88.40681629 -33.85424805 93.1496582 C-34.10911987 94.20914673 -34.10911987 94.20914673 -34.36914062 95.29003906 C-34.78502034 97.0835343 -35.17078189 98.88394428 -35.5534668 100.68481445 C-36.63549805 103.24731445 -36.63549805 103.24731445 -38.9284668 104.60668945 C-41.63618786 105.2474777 -43.98116512 105.51431343 -46.76049805 105.49731445 C-48.03280273 105.50504883 -48.03280273 105.50504883 -49.33081055 105.51293945 C-51.63549805 105.24731445 -51.63549805 105.24731445 -54.63549805 103.24731445 C-55.11568957 98.23665351 -54.25759103 94.19695133 -52.72924805 89.44262695 C-52.52907074 88.81025116 -52.32889343 88.17787537 -52.12265015 87.52633667 C-51.46978035 85.47181559 -50.80284559 83.42217363 -50.13549805 81.37231445 C-49.67513483 79.93379707 -49.21567247 78.4949911 -48.75708008 77.0559082 C-47.83040958 74.15340509 -46.89813092 71.25280298 -45.96069336 68.35375977 C-44.78471284 64.71555022 -43.62486039 61.07243438 -42.47143555 57.42700195 C-38.0009601 43.31980309 -33.35211804 29.27395085 -28.63549805 15.24731445 C-31.47165829 15.47760097 -34.30268587 15.73090578 -37.13549805 15.99731445 C-37.92698242 16.05918945 -38.7184668 16.12106445 -39.53393555 16.18481445 C-46.64670011 16.88443064 -52.07986795 18.97564325 -57.44799805 23.74731445 C-60.82932789 28.15675134 -61.57420768 33.9149775 -62.63549805 39.24731445 C-67.29956055 40.39575195 -67.29956055 40.39575195 -70.32299805 39.05981445 C-73.31092186 36.71792822 -74.37198521 34.71437152 -75.04174805 30.9855957 C-75.31787828 23.84072597 -73.40981143 19.53245972 -68.63549805 14.24731445 C-60.89281118 6.91061117 -51.93977108 3.06939197 -41.57299805 0.99731445 C-40.72954834 0.82820557 -39.88609863 0.65909668 -39.01708984 0.48486328 C-26.23001533 -1.81734472 -12.86939903 -1.58222055 0 0 Z " fill="#151515" transform="translate(434.635498046875,438.752685546875)"/>
<path d="M0 0 C4.95412783 4.95412783 6.57138938 9.62447774 6.8125 16.625 C6.36038264 29.28428619 0.15833167 42.13880319 -9.0625 50.8125 C-18.39049741 58.28735602 -26.95588953 59.50639633 -38.70458984 58.58300781 C-44.57874165 57.78165837 -47.41633318 54.74256267 -51.1875 50.5 C-54.91621818 42.87610302 -53.4710611 31.788172 -51.125 23.9375 C-46.59905371 12.25865957 -38.00909795 2.13529948 -26.4453125 -3.01171875 C-17.08364608 -6.6107594 -8.29542011 -5.20875216 0 0 Z " fill="#141414" transform="translate(472.6875,485.6875)"/>
<path d="M0 0 C4.55802806 3.93647878 7.7006534 7.51353547 8.43359375 13.6015625 C8.45721236 14.94250098 8.45757193 16.28400374 8.4375 17.625 C8.42992676 18.33285645 8.42235352 19.04071289 8.41455078 19.77001953 C8.04260963 31.73457895 2.31944275 42.56872203 -5.6875 51.3125 C-12.9154021 58.0105371 -20.10629542 60.41646085 -29.8125 60.5 C-30.52978271 60.50644531 -31.24706543 60.51289062 -31.98608398 60.51953125 C-37.42179501 60.38783318 -41.58706231 59.20087429 -45.64453125 55.5 C-51.27773116 48.26538875 -50.90903175 39.82975456 -50 31 C-48.04755877 22.96301132 -44.5244112 16.13223151 -39 10 C-38.44183594 9.37351562 -37.88367188 8.74703125 -37.30859375 8.1015625 C-27.77029345 -2.01287675 -12.82110219 -7.58799926 0 0 Z " fill="#141414" transform="translate(688,484)"/>
<path d="M0 0 C3.28177256 1.47359419 4.35891783 3.6244787 5.80078125 6.80859375 C6.80920125 11.96274042 4.81925834 14.98198419 2.08984375 19.171875 C0.80078125 20.80859375 0.80078125 20.80859375 -1.19921875 21.80859375 C-3.19881887 21.84858575 -5.19969117 21.85206174 -7.19921875 21.80859375 C-7.69421875 20.32359375 -7.69421875 20.32359375 -8.19921875 18.80859375 C-11.23888597 18.27665199 -13.40075583 18.36822935 -16.1328125 19.875 C-26.5506728 27.97778023 -29.90890264 40.79665455 -32.42651367 53.14331055 C-33.75361082 59.32531588 -33.75361082 59.32531588 -36.09375 61.86328125 C-39.54048164 63.41079342 -42.50342508 63.45990165 -46.19921875 62.80859375 C-48.69921875 61.37109375 -48.69921875 61.37109375 -50.19921875 58.80859375 C-50.85361157 50.93193872 -48.92734692 44.40767538 -46.57421875 36.93359375 C-46.21175049 35.7528125 -45.84928223 34.57203125 -45.47583008 33.35546875 C-44.7411265 30.96869333 -44.00103508 28.58356927 -43.25537109 26.20019531 C-42.29453494 23.11468079 -41.36020697 20.02286725 -40.4375 16.92578125 C-39.92133457 15.21982145 -39.4044604 13.51407585 -38.88671875 11.80859375 C-38.65710449 11.03273926 -38.42749023 10.25688477 -38.19091797 9.45751953 C-36.09055804 2.69549756 -36.09055804 2.69549756 -33.19921875 0.80859375 C-28.56285611 0.28513345 -26.3042969 0.21000975 -22.19921875 2.43359375 C-20.19921875 4.80859375 -20.19921875 4.80859375 -19.88671875 7.87109375 C-19.98984375 8.84046875 -20.09296875 9.80984375 -20.19921875 10.80859375 C-20.19921875 11.79859375 -20.19921875 12.78859375 -20.19921875 13.80859375 C-19.77511719 13.30070312 -19.35101562 12.7928125 -18.9140625 12.26953125 C-7.12720661 -1.56383368 -7.12720661 -1.56383368 0 0 Z " fill="#151415" transform="translate(636.19921875,481.19140625)"/>
<path d="M0 0 C3.25 1.875 3.25 1.875 5 5 C6.45516657 13.51545736 3.21103281 20.80929164 0.0625 28.5625 C-2.96909249 36.11437621 -5.58988758 42.82392908 -6 51 C0.92005781 49.84665703 4.5135017 46.25248582 9 41 C9.495 40.01 9.495 40.01 10 39 C11.32 39 12.64 39 14 39 C14.80078125 41.62109375 14.80078125 41.62109375 15 45 C13.45998267 47.38841011 12.14391507 49.07675146 10.1875 51.0625 C9.68412109 51.58618164 9.18074219 52.10986328 8.66210938 52.64941406 C2.68672157 58.62855054 -3.16146821 62.13754279 -11.75 62.625 C-15.73553031 62.38191092 -19.13239992 62.01627652 -21.92089844 58.96118164 C-24.81101084 53.7086312 -23.5692374 46.22887489 -22.1472168 40.66088867 C-21.02225813 37.37608812 -19.79750778 34.15789092 -18.5 30.9375 C-17.65089702 28.76119551 -16.80690864 26.58288662 -15.96875 24.40234375 C-15.59169922 23.45866943 -15.21464844 22.51499512 -14.82617188 21.54272461 C-13.7939908 18.81155762 -13.7939908 18.81155762 -14 15 C-21.8756813 15.19689203 -26.86923135 21.65544932 -32 27 C-31.67 26.236875 -31.34 25.47375 -31 24.6875 C-29.82563314 22.00930865 -29.82563314 22.00930865 -30 19 C-30 18.34 -30 17.68 -30 17 C-30.66 16.67 -31.32 16.34 -32 16 C-14.61959357 -2.54992911 -14.61959357 -2.54992911 0 0 Z " fill="#141313" transform="translate(972,482)"/>
<path d="M0 0 C2.48443886 2.48443886 2.32412231 3.31066838 2.375 6.75 C2.09866883 19.20115729 -2.65896846 32.25859177 -10.57421875 41.921875 C-13.1394058 44.31874269 -14.8772159 44.9886311 -18.375 45.3125 C-19.24125 45.209375 -20.1075 45.10625 -21 45 C-24.93380249 37.9787111 -22.99505396 30.42629066 -20.98046875 22.9921875 C-17.82132512 13.35113562 -11.9057636 -1.29410474 0 0 Z " fill="#FAFAFA" transform="translate(460,490)"/>
<path d="M0 0 C3.03664442 4.55496663 2.44126243 8.6584103 1.46484375 13.83984375 C-1.26414723 25.42687103 -4.93389591 35.08184967 -13.5625 43.5 C-16.35598351 45.21906678 -17.78152385 45.60890089 -21 45 C-24.37959387 39.9306092 -23.52729808 34.11504662 -22.53515625 28.25390625 C-19.90115025 17.51526641 -13.57943041 -1.44462026 0 0 Z " fill="#F9F9F9" transform="translate(678,490)"/>
<path d="M0 0 C3 2 3 2 3.3984375 3.84765625 C3.2729759 15.70377739 -1.89145901 28.03632243 -10 36.6875 C-13.16715654 39.62930117 -15.53532304 41 -20 41 C-23.24638645 37.20250286 -23.51601553 34.78383509 -23.34375 29.91015625 C-22.1053539 19.42600741 -18.129797 9.85600954 -10.42578125 2.49609375 C-7.02739104 -0.06384848 -4.15649918 -0.55419989 0 0 Z " fill="#F9F9F9" transform="translate(738,492)"/>
<path d="M0 0 C1.68359375 1.28515625 1.68359375 1.28515625 3 3 C3.19985713 14.99142788 -2.94616435 27.37614401 -11 36 C-11.66257812 36.73347656 -12.32515625 37.46695313 -13.0078125 38.22265625 C-15 40 -15 40 -18.25 40.25 C-19.1575 40.1675 -20.065 40.085 -21 40 C-23.52980126 36.20529811 -23.56065599 32.38142271 -23 28 C-20.42726055 16.86073354 -14.28423712 -1.48794137 0 0 Z " fill="#F9F9F9" transform="translate(849,492)"/>
<path d="M0 0 C2.9375 1.5 2.9375 1.5 5 4 C5.62750513 7.89053183 5.93364189 10.3238555 4.0078125 13.78125 C1.15389558 17.39739318 -1.65566469 19.64504782 -6.21875 20.3359375 C-9.96610943 20.40010461 -12.30673258 20.42272403 -15.5625 18.4375 C-17.6279287 14.93525133 -17.68016563 13.01297724 -17 9 C-12.77873249 2.24597198 -8.11008504 -0.85369316 0 0 Z " fill="#151515" transform="translate(170,457)"/>
<path d="M0 0 C2 2 2 2 2.4375 5.125 C1.86755008 10.1731279 0.40199968 13.2410941 -3 17 C-7.23743029 20.3713339 -11.55867546 23.35237266 -17.125 23.375 C-18.07375 23.25125 -19.0225 23.1275 -20 23 C-19.67334899 15.48702686 -16.34542785 9.29968958 -11 4.02734375 C-7.264949 1.03505857 -4.9356258 -0.56731331 0 0 Z " fill="#F7F7F7" transform="translate(320,491)"/>
<path d="M0 0 C0.66 0.33 1.32 0.66 2 1 C-2.50762062 15.00062809 -2.50762062 15.00062809 -8.1640625 19.11328125 C-11.23157384 20.59482396 -13.69069336 20.5091241 -17 20 C-17.99 19.34 -18.98 18.68 -20 18 C-19.66849824 15.01648418 -19.38056503 13.4013704 -17.28515625 11.19140625 C-5.59077012 2.62100376 -5.59077012 2.62100376 0 0 Z " fill="#F3F3F3" transform="translate(724,554)"/>
<path d="M0 0 C0 0.33 0 0.66 0 1 C-1.65 1 -3.3 1 -5 1 C-5.2578125 1.59296875 -5.515625 2.1859375 -5.78125 2.796875 C-7.09769895 5.17660965 -8.42580782 6.50978792 -10.5 8.25 C-11.1084375 8.77078125 -11.716875 9.2915625 -12.34375 9.828125 C-14 11 -14 11 -16 11 C-13.17935891 4.49525626 -7.46726175 -1.30677081 0 0 Z " fill="#232323" transform="translate(809,481)"/>
<path d="M0 0 C0 3.43801737 -0.37648923 4.96474074 -2 8 C-4.20931184 10.16339081 -6.56080866 12.10212652 -9 14 C-9.66 13.67 -10.32 13.34 -11 13 C-7.61227103 8.30840284 -4.21814817 3.9700218 0 0 Z " fill="#0E0D0D" transform="translate(625,485)"/>
<path d="M0 0 C0.99 0 1.98 0 3 0 C2.67 2.64 2.34 5.28 2 8 C-0.91482778 8.80967438 -2.46113217 9.21845993 -5.3125 8.0625 C-5.869375 7.711875 -6.42625 7.36125 -7 7 C-7 6.34 -7 5.68 -7 5 C-4.03 5.495 -4.03 5.495 -1 6 C-0.67 4.02 -0.34 2.04 0 0 Z " fill="#2D2D2D" transform="translate(370,470)"/>
<path d="M0 0 C1.125 1.6875 1.125 1.6875 2 4 C0.9793987 8.97543134 -2.14090621 11.06373298 -6 14 C-6 13.01 -6 12.02 -6 11 C-4 9.3125 -4 9.3125 -2 8 C-2.226875 7.236875 -2.45375 6.47375 -2.6875 5.6875 C-2.790625 4.800625 -2.89375 3.91375 -3 3 C-1.5625 1.1875 -1.5625 1.1875 0 0 Z " fill="#0C0C0C" transform="translate(839,528)"/>
<path d="M0 0 C-0.55550695 3.59905908 -1.74887248 4.99909799 -4.5625 7.25 C-5.20316406 7.77078125 -5.84382812 8.2915625 -6.50390625 8.828125 C-6.99761719 9.21484375 -7.49132812 9.6015625 -8 10 C-8.66 9.34 -9.32 8.68 -10 8 C-8.71451591 6.66070495 -7.42141845 5.32871357 -6.125 4 C-5.04605469 2.88625 -5.04605469 2.88625 -3.9453125 1.75 C-2 0 -2 0 0 0 Z " fill="#1F1F1F" transform="translate(248,489)"/>
<path d="M0 0 C2.92015074 0.09733836 5.231934 0.19176699 8 1 C10.95917541 4.18111357 11.92881451 6.03899584 12.25 10.375 C12.1675 11.24125 12.085 12.1075 12 13 C11.67 13 11.34 13 11 13 C10.731875 12.0925 10.46375 11.185 10.1875 10.25 C8.74988051 6.17386283 8.74988051 6.17386283 6 3 C2.37436186 2.66619186 2.37436186 2.66619186 -1 3 C-0.67 2.01 -0.34 1.02 0 0 Z " fill="#2B2A2A" transform="translate(630,481)"/>
<path d="M0 0 C0.66 0.33 1.32 0.66 2 1 C-6.07744875 9.81548975 -6.07744875 9.81548975 -12 11 C-10.78821999 7.36465996 -9.73911373 6.92478955 -6.5625 4.9375 C-4.10191119 3.38531476 -2.06116538 2.06116538 0 0 Z " fill="#0B0B0B" transform="translate(173,522)"/>
<path d="M0 0 C0.99 0.33 1.98 0.66 3 1 C3 3.64 3 6.28 3 9 C2.67 9 2.34 9 2 9 C1.67 7.02 1.34 5.04 1 3 C-1.97 5.475 -1.97 5.475 -5 8 C-5 5 -5 5 -2.5 2.3125 C-1.675 1.549375 -0.85 0.78625 0 0 Z " fill="#2F2F2F" transform="translate(170,531)"/>
<path d="M0 0 C1.1875 1.5 1.1875 1.5 2 4 C1.27101296 6.78824238 0.1843275 9.37665092 -1 12 C-1.66 12 -2.32 12 -3 12 C-3.33 12.99 -3.66 13.98 -4 15 C-3.43179252 9.54520815 -2.05362055 5.08940744 0 0 Z " fill="#2C2B2C" transform="translate(251,512)"/>
<path d="M0 0 C0.66 0.99 1.32 1.98 2 3 C1.390625 5.4453125 1.390625 5.4453125 0.25 8.125 C-0.11609375 9.01445313 -0.4821875 9.90390625 -0.859375 10.8203125 C-2 13 -2 13 -4 14 C-3.00956295 9.16371695 -2.04301154 4.52381127 0 0 Z " fill="#201F1F" transform="translate(917,517)"/>
<path d="M0 0 C0.93423645 3.01031744 1.04449911 3.86650268 0 7 C-0.66 7 -1.32 7 -2 7 C-2 9.64 -2 12.28 -2 15 C-2.33 15 -2.66 15 -3 15 C-3.55353075 4.44191344 -3.55353075 4.44191344 0 0 Z " fill="#282727" transform="translate(363,457)"/>
<path d="M0 0 C0 0.66 0 1.32 0 2 C-1.78871178 2.38885039 -3.58112874 2.76069196 -5.375 3.125 C-6.37273438 3.33382813 -7.37046875 3.54265625 -8.3984375 3.7578125 C-9.25695312 3.83773438 -10.11546875 3.91765625 -11 4 C-11.66 3.34 -12.32 2.68 -13 2 C-11.58461283 1.66127487 -10.16762037 1.32925376 -8.75 1 C-7.56664062 0.7215625 -7.56664062 0.7215625 -6.359375 0.4375 C-4 0 -4 0 0 0 Z " fill="#1B1B1A" transform="translate(545,441)"/>
<path d="M0 0 C0.33 0 0.66 0 1 0 C0.88490339 1.41750563 0.75746342 2.83401169 0.625 4.25 C0.55539062 5.03890625 0.48578125 5.8278125 0.4140625 6.640625 C-0.01507113 9.085877 -0.78600638 10.84836903 -2 13 C-3.18771723 9.57056481 -2.80226223 7.62215325 -1.5625 4.25 C-1.27503906 3.45078125 -0.98757813 2.6515625 -0.69140625 1.828125 C-0.46324219 1.22484375 -0.23507812 0.6215625 0 0 Z " fill="#080808" transform="translate(403,515)"/>
<path d="M0 0 C0.66 0.33 1.32 0.66 2 1 C-0.14822047 4.2223307 -1.7274751 5.08437567 -5 7 C-6.75149165 8.58245275 -6.75149165 8.58245275 -8 10 C-8.66 9.67 -9.32 9.34 -10 9 C-6.7 6.03 -3.4 3.06 0 0 Z " fill="#222222" transform="translate(300,486)"/>
<path d="M0 0 C1 2 1 2 0.51171875 4.12890625 C0.23972656 4.93199219 -0.03226562 5.73507812 -0.3125 6.5625 C-0.57675781 7.36816406 -0.84101563 8.17382812 -1.11328125 9.00390625 C-2 11 -2 11 -4 12 C-3.5317879 7.22423661 -2.75668002 3.95523655 0 0 Z " fill="#0D0D0D" transform="translate(404,464)"/>
<path d="M0 0 C0.33 0.99 0.66 1.98 1 3 C-1.31 4.98 -3.62 6.96 -6 9 C-6 6 -6 6 -4.6875 4.39453125 C-4.130625 3.87246094 -3.57375 3.35039063 -3 2.8125 C-2.443125 2.28269531 -1.88625 1.75289062 -1.3125 1.20703125 C-0.6628125 0.60955078 -0.6628125 0.60955078 0 0 Z " fill="#1B1B1B" transform="translate(467,529)"/>
<path d="M0 0 C0.66 0 1.32 0 2 0 C2.08096803 1.45742463 2.13917774 2.91612807 2.1875 4.375 C2.22230469 5.18710937 2.25710938 5.99921875 2.29296875 6.8359375 C2.19628906 7.55007813 2.09960938 8.26421875 2 9 C1.01 9.66 0.02 10.32 -1 11 C-0.67 7.37 -0.34 3.74 0 0 Z " fill="#292928" transform="translate(813,486)"/>
<path d="M0 0 C0.66 0.33 1.32 0.66 2 1 C0.35 2.98 -1.3 4.96 -3 7 C-3.99 6.34 -4.98 5.68 -6 5 C-4.02 3.35 -2.04 1.7 0 0 Z " fill="#1C1B1C" transform="translate(214,485)"/>
<path d="M0 0 C0 1.65 0 3.3 0 5 C-0.99 5 -1.98 5 -3 5 C-3.33 4.67 -3.66 4.34 -4 4 C-4.99 4 -5.98 4 -7 4 C-3.375 0 -3.375 0 0 0 Z " fill="#090909" transform="translate(338,521)"/>
<path d="M0 0 C-0.33 0.99 -0.66 1.98 -1 3 C-1.66 3 -2.32 3 -3 3 C-3.433125 3.928125 -3.433125 3.928125 -3.875 4.875 C-5 7 -5 7 -7 9 C-7.33 8.01 -7.66 7.02 -8 6 C-7.0479279 4.99403703 -6.08812654 3.99538437 -5.125 3 C-4.59132813 2.443125 -4.05765625 1.88625 -3.5078125 1.3125 C-2 0 -2 0 0 0 Z " fill="#201F1F" transform="translate(453,490)"/>
<path d="M0 0 C0.66 0.33 1.32 0.66 2 1 C1.38125 1.2475 0.7625 1.495 0.125 1.75 C-2.35068687 3.20628639 -2.95125002 4.37812506 -4 7 C-5.32 6.67 -6.64 6.34 -8 6 C-5.36 4.02 -2.72 2.04 0 0 Z " fill="#201F1F" transform="translate(443,484)"/>
<path d="M0 0 C2.35964273 0.40683495 3.85934088 0.89814339 5.8125 2.3125 C7 4 7 4 6.6875 6.1875 C6.460625 6.785625 6.23375 7.38375 6 8 C3.47154472 6.73577236 3.23577236 5.47154472 2 3 C1.34 2.67 0.68 2.34 0 2 C0 1.34 0 0.68 0 0 Z " fill="#202020" transform="translate(933,483)"/>
<path d="M0 0 C0.33 0 0.66 0 1 0 C1.33692785 1.60341555 1.66941093 3.20776555 2 4.8125 C2.185625 5.70582031 2.37125 6.59914063 2.5625 7.51953125 C3 10 3 10 3 13 C0.75393573 11.22555028 0.04918998 10.41647515 -0.29296875 7.51953125 C-0.25816406 6.62621094 -0.22335938 5.73289062 -0.1875 4.8125 C-0.16042969 3.91144531 -0.13335937 3.01039063 -0.10546875 2.08203125 C-0.07066406 1.39496094 -0.03585938 0.70789063 0 0 Z " fill="#070707" transform="translate(68,464)"/>
<path d="M0 0 C0.33 0 0.66 0 1 0 C2.11658501 4.68965706 1.80619523 7.53763531 0 12 C-0.66 11.67 -1.32 11.34 -2 11 C-1.34 7.37 -0.68 3.74 0 0 Z " fill="#262525" transform="translate(923,498)"/>
<path d="M0 0 C0.66 0.33 1.32 0.66 2 1 C0.68 3.31 -0.64 5.62 -2 8 C-2.66 8 -3.32 8 -4 8 C-2.87548273 5.0280615 -1.77706209 2.66559313 0 0 Z " fill="#232223" transform="translate(707,497)"/>
<path d="M0 0 C0.99 0.33 1.98 0.66 3 1 C1.35 2.98 -0.3 4.96 -2 7 C-2.66 6.67 -3.32 6.34 -4 6 C-3.34 4.68 -2.68 3.36 -2 2 C-1.34 2 -0.68 2 0 2 C0 1.34 0 0.68 0 0 Z " fill="#0C0B0B" transform="translate(791,499)"/>
<path d="M0 0 C0.66 0.33 1.32 0.66 2 1 C-1.625 6.875 -1.625 6.875 -5 8 C-3.62845496 5.04590299 -2.01136276 2.55991624 0 0 Z " fill="#1C1B1C" transform="translate(639,495)"/>
<path d="M0 0 C0.66 0.33 1.32 0.66 2 1 C0.29374499 3.78388975 -0.47626739 4.85384206 -3.6875 5.75 C-4.8321875 5.87375 -4.8321875 5.87375 -6 6 C-4 4 -2 2 0 0 Z " fill="#232223" transform="translate(954,485)"/>
<path d="M0 0 C1.0326802 2.78823655 1.04509293 3.8677274 0.0625 6.75 C-0.288125 7.4925 -0.63875 8.235 -1 9 C-1.66 9 -2.32 9 -3 9 C-1.125 2.25 -1.125 2.25 0 0 Z " fill="#0B0B0B" transform="translate(300,505)"/>
<path d="M0 0 C0.66 0 1.32 0 2 0 C3.76462683 3.08809695 4 4.23312136 4 8 C3.34 8 2.68 8 2 8 C1.34 5.36 0.68 2.72 0 0 Z " fill="#1B1B1B" transform="translate(692,490)"/>
<path d="M0 0 C0.99 0.33 1.98 0.66 3 1 C0.03 3.475 0.03 3.475 -3 6 C-3.66 5.67 -4.32 5.34 -5 5 C-3.35 3.35 -1.7 1.7 0 0 Z " fill="#080707" transform="translate(207,491)"/>
<path d="M0 0 C0.99 0.33 1.98 0.66 3 1 C1.50260417 2.23697917 0.00520833 3.47395833 -1.4921875 4.7109375 C-2.71051161 5.75250992 -3.86660097 6.86660097 -5 8 C-4.45773019 4.20411134 -2.79872437 2.52788007 0 0 Z " fill="#060606" transform="translate(826,489)"/>
<path d="M0 0 C1.32 0.33 2.64 0.66 4 1 C4 2.98 4 4.96 4 7 C3.01 7.495 3.01 7.495 2 8 C1.34 5.36 0.68 2.72 0 0 Z " fill="#0A0A0A" transform="translate(784,484)"/>
<path d="M0 0 C0 0.33 0 0.66 0 1 C-1.093125 1.309375 -2.18625 1.61875 -3.3125 1.9375 C-5.55407994 2.58337897 -7.7869351 3.2623117 -10 4 C-10.66 3.34 -11.32 2.68 -12 2 C-7.8794254 0.00214565 -4.54805635 -0.17835515 0 0 Z " fill="#575757" transform="translate(267,481)"/>
<path d="M0 0 C2.64 0 5.28 0 8 0 C8 0.33 8 0.66 8 1 C5 2 2 3 -1 4 C-0.67 2.68 -0.34 1.36 0 0 Z " fill="#080808" transform="translate(543,458)"/>
<path d="M0 0 C0.66 0.33 1.32 0.66 2 1 C-0.83430453 4.2542015 -2.68607774 5.5206753 -7 6 C-4.74259377 3.66475218 -2.7194239 1.81294927 0 0 Z " fill="#1D1C1D" transform="translate(519,448)"/>
<path d="M0 0 C0.66 0.33 1.32 0.66 2 1 C0.02 2.32 -1.96 3.64 -4 5 C-4.99 4.34 -5.98 3.68 -7 3 C-4.69631264 1.93347808 -2.35981813 0.93578995 0 0 Z " fill="#242323" transform="translate(382,443)"/>
</svg>
